<svg xmlns="http://www.w3.org/2000/svg" fill="none" viewBox="0 0 100 50" height="50" width="100">
<path fill="#2E2E2E" d="M5.48888 29.2831H10.5525C11.5123 29.2831 12.4089 29.9841 12.4576 30.9132H12.5037V27.0954H5.48888L5.48546 20.394H12.2535C13.2175 20.394 14.115 21.0925 14.1654 22.0189H14.2098L14.2029 18.1986L0 18.2046V18.2464C0.95637 18.2985 1.67365 19.3112 1.67365 20.2573V37.8127C1.67365 38.7554 0.95637 39.7724 0 39.8262V39.8672H7.16594V39.8262C6.20872 39.7724 5.48546 38.7554 5.48546 37.8127L5.48888 29.2831Z"></path>
<path fill="#2E2E2E" d="M20.152 34.0415C20.152 36.2941 22.0305 38.2419 24.3489 38.2419C26.6647 38.2419 28.5501 36.2685 28.5501 34.0151V20.257C28.5501 19.3109 27.8302 18.2981 26.8713 18.2461V18.2051L34.0424 18.1982V18.2461C33.0852 18.2981 32.3602 19.3109 32.3602 20.257V33.6257C32.3602 37.9285 28.7926 40.4355 24.3677 40.4355C19.9351 40.4355 16.329 37.9285 16.329 33.6257L16.3384 20.257C16.3384 19.3109 15.6152 18.2981 14.6631 18.2461V18.1982H21.8239V18.2461C20.8692 18.3033 20.1485 19.3169 20.1485 20.257L20.152 34.0415Z"></path>
<path fill="#2E2E2E" d="M78.7445 21.7072C77.543 19.7714 74.8012 20.0045 74.8012 20.0045C70.3165 20.0045 70.5282 23.4158 70.5282 23.4158C70.5282 23.4158 70.22 25.127 72.4734 26.2943L76.9573 28.6699C81.2857 30.9857 80.7725 34.2766 80.7725 34.2766C80.7725 34.2766 80.968 40.4247 71.9158 40.4247C71.9158 40.4247 69.2858 40.505 67.7966 39.9482L66.5226 35.9665H66.567C67.946 37.9492 71.9525 38.2353 71.9525 38.2353C77.0392 38.0124 77.0742 34.5661 77.0742 34.5661C77.0742 34.5661 77.3031 33.082 75.3118 32.0069L70.8493 29.6322C66.1904 27.1499 66.7241 23.8069 66.7241 23.8069C66.7241 23.8069 66.614 17.7587 74.6227 17.7587C74.6227 17.7587 78.2176 17.8509 78.7906 18.4102V21.7072H78.7445Z"></path>
<path fill="#2E2E2E" d="M43.8035 10.6654C44.5976 11.4425 45.706 11.9198 46.916 11.9198C49.3538 11.9198 51.3272 10.0019 51.3272 7.6315C51.3272 5.2679 49.3538 3.34663 46.916 3.34663C46.916 3.34663 43.52 3.03324 41.9915 7.25835L41.9966 4.08696C43.134 2.63959 44.8948 1.58759 46.916 1.58759C50.3555 1.58759 53.1383 4.29104 53.1383 7.6315C53.1383 10.9668 50.3555 13.6805 46.916 13.6805C45.1979 13.6805 43.6438 13.0068 42.5209 11.9078L40.381 9.56901C39.7944 8.99945 38.9875 8.65277 38.1028 8.65277C36.3207 8.65277 34.8759 10.0532 34.8759 11.7832C34.8759 13.52 36.3207 14.9238 38.1028 14.9238C38.1028 14.9238 40.4861 15.2346 41.9915 12.363L41.9966 14.9025C41.0744 15.9903 39.6663 16.6846 38.1028 16.6846C35.3208 16.6846 33.0614 14.49 33.0614 11.7832C33.0614 9.08143 35.3208 6.89202 38.1028 6.89202C39.4887 6.89202 40.7474 7.4334 41.661 8.32658L43.8035 10.6654Z"></path>
<path fill="#2E2E2E" d="M44.9501 20.2118C44.9501 19.2649 44.2294 18.2948 43.2739 18.2461V18.2052H50.4288V18.2461C49.4792 18.2991 48.7551 19.27 48.7551 20.2118V37.8048C48.7551 38.7492 49.4792 39.7653 50.4288 39.8217V39.8618H43.2739V39.8217C44.2294 39.7653 44.9501 38.7492 44.9501 37.8048V20.2118Z"></path>
<path fill="#2E2E2E" d="M40.4571 20.2573C40.4571 19.3111 41.176 18.2984 42.1324 18.2463V18.2045H34.9665V18.2463C35.9254 18.2984 36.641 19.3111 36.641 20.2573L36.647 42.2512C36.647 42.2512 36.5667 46.1348 33.438 48.3694L33.4457 48.4121C34.063 48.3113 40.4622 47.1304 40.4622 40.949L40.4571 20.2573Z"></path>
<path fill="#2E2E2E" d="M50.4025 22.1019H50.4452C51.4152 20.4137 52.9112 20.3941 52.9112 20.3941H56.7905L56.7931 37.8128C56.7931 38.7555 56.0715 39.7648 55.116 39.8212V39.8613H62.2913V39.8212C61.3281 39.7648 60.604 38.7487 60.604 37.8128L60.6092 20.3941L63.8514 20.3864C64.836 20.3864 65.6156 21.1498 65.6438 22.1019H65.683L66.8742 18.1978H51.5971L50.4025 22.1019Z"></path>
<path fill="#2E2E2E" d="M86.1114 34.0415C86.1114 36.2941 87.99 38.2419 90.3092 38.2419C92.6224 38.2419 94.5096 36.2685 94.5096 34.0151V20.257C94.5096 19.3109 93.7889 18.2981 92.8342 18.2461V18.2051L100 18.1982V18.2461C99.0498 18.2981 98.3256 19.3109 98.3256 20.257V33.6257C98.3256 37.9285 94.7563 40.4355 90.3246 40.4355C85.9005 40.4355 82.2936 37.9285 82.2936 33.6257L82.2988 20.257C82.2988 19.3109 81.5772 18.2981 80.62 18.2461V18.1982H87.7876V18.2461C86.8279 18.3033 86.1063 19.3169 86.1063 20.257L86.1114 34.0415Z"></path>
</svg>
