<svg xmlns="http://www.w3.org/2000/svg" fill="none" viewBox="0 0 171 61" height="61" width="171">
<path fill="#2E2E2E" d="M168.355 28.2239C168.243 28.3165 168.107 28.3707 167.943 28.3865L168.573 29.3579H168.207L167.609 28.4114H167.248V29.3579H166.907V27.1576H167.757C168.018 27.1576 168.211 27.2096 168.336 27.3135C168.461 27.4174 168.525 27.5756 168.525 27.7856C168.525 27.9844 168.47 28.129 168.359 28.2216L168.355 28.2239ZM167.602 28.1358C167.68 28.1358 167.752 28.1335 167.821 28.129C167.889 28.1245 167.95 28.1109 168.005 28.0861C168.059 28.0612 168.1 28.0274 168.132 27.9777C168.164 27.9302 168.18 27.8602 168.18 27.7743C168.18 27.6998 168.166 27.6411 168.136 27.5981C168.109 27.5552 168.071 27.5213 168.027 27.4987C167.982 27.4739 167.93 27.4581 167.871 27.4513C167.812 27.4423 167.755 27.4378 167.698 27.4378H167.246V28.138H167.602V28.1358ZM169.37 27.5123C169.47 27.7405 169.52 27.9867 169.52 28.251C169.52 28.5153 169.47 28.7728 169.37 29.0033C169.27 29.2337 169.134 29.4325 168.964 29.6019C168.793 29.7713 168.593 29.9023 168.366 29.9972C168.139 30.0898 167.896 30.1373 167.637 30.1373C167.378 30.1373 167.134 30.0898 166.905 29.9972C166.675 29.9023 166.475 29.7713 166.303 29.6019C166.13 29.4325 165.994 29.2337 165.894 29.0033C165.794 28.7728 165.744 28.5221 165.744 28.251C165.744 27.9799 165.794 27.7405 165.894 27.5123C165.994 27.2841 166.13 27.0853 166.303 26.9182C166.475 26.751 166.675 26.62 166.905 26.5229C167.134 26.428 167.378 26.3805 167.637 26.3805C167.896 26.3805 168.136 26.428 168.366 26.5229C168.593 26.6177 168.793 26.751 168.964 26.9182C169.134 27.0876 169.27 27.2841 169.37 27.5123ZM169.061 28.8926C169.139 28.696 169.179 28.4837 169.179 28.251C169.179 28.0183 169.141 27.8173 169.061 27.623C168.982 27.4287 168.873 27.2593 168.734 27.117C168.595 26.9747 168.432 26.8617 168.246 26.7804C168.057 26.6968 167.855 26.6561 167.637 26.6561C167.418 26.6561 167.212 26.6968 167.021 26.7804C166.832 26.8617 166.666 26.9747 166.528 27.117C166.389 27.2593 166.28 27.4287 166.201 27.623C166.121 27.8173 166.082 28.0274 166.082 28.251C166.082 28.4746 166.121 28.696 166.201 28.8926C166.28 29.0891 166.389 29.2608 166.528 29.4031C166.666 29.5477 166.83 29.6606 167.021 29.742C167.209 29.8233 167.416 29.8662 167.637 29.8662C167.857 29.8662 168.057 29.8255 168.246 29.742C168.434 29.6606 168.595 29.5454 168.734 29.4031C168.873 29.2585 168.982 29.0891 169.061 28.8926ZM10.691 19.8316C12.686 21.9416 12.8951 23.1185 13.6017 25.1652L14.7878 29.0575C14.7878 29.0575 13.6176 28.8361 12.661 28.6915C11.5499 28.5221 11.0568 28.3572 9.64351 27.7811C8.23018 27.2028 6.95091 25.7932 5.6989 24.2187C4.44463 22.6464 1.52026 20.1728 1.52026 20.1728C1.52026 20.1728 2.42461 20.2315 3.3426 20.4619C4.09471 20.6494 6.0511 21.2865 8.06885 22.3369C8.51648 22.5696 8.76415 22.7209 9.20496 22.9943C9.87527 23.4099 10.5819 24.0289 11.2591 24.7156C12.0521 25.5221 12.7474 26.1704 13.3427 26.8933C12.6974 25.7006 11.0205 21.4084 7.74392 17.8663C7.42353 17.5184 10.0071 19.111 10.691 19.8339V19.8316ZM90.0806 25.6102C94.7274 25.6102 98.7424 29.629 98.7424 34.3052C98.7424 39.3405 94.8955 43.2599 89.8125 43.2599C85.1976 43.2599 81.178 40.0024 81.178 34.7728V19.3798H83.8502V28.1629L84.1683 27.8286C85.3317 26.6719 86.9904 25.6102 90.0829 25.6102H90.0806ZM89.8125 40.8202C93.6026 40.8202 96.0112 38.1184 96.0112 34.5537C96.0112 31.2781 93.7367 28.1493 89.8739 28.1493C86.0111 28.1493 83.6161 31.0657 83.6161 34.6192C83.6161 38.1726 86.4564 40.8202 89.8125 40.8202ZM24.9516 25.6102C29.6005 25.6102 33.6133 29.629 33.6133 34.3052C33.6133 39.3405 29.7664 43.2599 24.6834 43.2599C20.0708 43.2599 16.0489 40.0024 16.0489 34.7728V17.7805H18.7211V28.1629L19.0392 27.8286C20.2026 26.6719 21.859 25.6102 24.9538 25.6102H24.9516ZM24.6834 40.8202C28.4735 40.8202 30.8821 38.1184 30.8821 34.5537C30.8821 31.2781 28.6076 28.1493 24.7448 28.1493C20.882 28.1493 18.487 31.0657 18.487 34.6192C18.487 38.1726 21.3273 40.8202 24.6834 40.8202ZM163.885 31.0928C163.885 33.379 162.19 35.1455 160.17 35.5476L165.228 42.4512H162.756L157.914 35.7351H155.771V42.4512H153.817V26.3805H158.452C162.449 26.3805 163.885 28.879 163.885 31.0928ZM155.769 33.9437H158.684C160.804 33.9437 161.863 32.6493 161.863 31.0928C161.863 29.2088 160.734 28.1719 158.661 28.1719H155.769V33.9437ZM148.879 33.2366V26.3805H150.831V42.4512H148.879V35.0281H140.345V42.4512H138.393V26.3805H140.345V33.2366H148.879ZM127.67 25.7864C132.681 25.7864 136.275 29.4889 136.275 34.3684C136.275 39.2479 132.644 43.0205 127.67 43.0205C122.696 43.0205 119.068 39.2479 119.068 34.3684C119.068 29.4889 122.833 25.7864 127.67 25.7864ZM127.67 40.5988C131.065 40.5988 133.519 37.906 133.519 34.3707C133.519 30.8353 131.201 28.1765 127.67 28.1765C124.139 28.1765 121.824 30.8014 121.824 34.3707C121.824 37.9399 124.58 40.5988 127.67 40.5988ZM108.765 25.7864C113.771 25.7864 117.368 29.4889 117.368 34.3684C117.368 39.2479 113.739 43.0205 108.765 43.0205C103.791 43.0205 100.16 39.2479 100.16 34.3684C100.16 29.4889 103.925 25.7864 108.765 25.7864ZM108.765 40.5988C112.158 40.5988 114.612 37.906 114.612 34.3707C114.612 30.8353 112.294 28.1765 108.765 28.1765C105.236 28.1765 102.916 30.8014 102.916 34.3707C102.916 37.9399 105.673 40.5988 108.765 40.5988ZM73.1389 25.7864C76.7676 25.7864 79.2898 28.3097 79.2898 33.0582V42.4489H76.6336V32.8526C76.6336 30.3632 75.4929 28.1742 72.7685 28.1742C70.5167 28.1742 68.399 29.7894 68.399 33.4942V42.4489H65.7109V32.8526C65.7109 30.1938 64.2658 28.1742 61.8799 28.1742C59.1896 28.1742 57.4763 30.126 57.4763 33.4942V42.4489H54.8201V26.3241H57.4763V28.3436H57.5445C58.6193 26.8978 60.2644 25.7864 62.3503 25.7864C64.8702 25.7864 66.9197 27.2322 67.5946 29.1185C68.4012 27.501 70.3508 25.7864 73.1411 25.7864H73.1389ZM49.7416 28.6463V26.3241H52.3956V42.4489H49.7416V40.2938H49.6735C48.4965 41.708 46.5151 43.0205 43.7907 43.0205C39.4234 43.0205 35.5243 39.6206 35.5243 34.3684C35.5243 29.1162 39.153 25.7864 43.9611 25.7864C46.8854 25.7864 48.5964 27.3338 49.7076 28.6463H49.7416ZM44.161 40.6666C47.1877 40.6666 49.9757 38.1071 49.9757 34.4723C49.9757 30.6343 47.3876 28.1109 44.2269 28.1109C40.1937 28.1109 38.2782 31.2758 38.2782 34.3707C38.2782 37.4655 40.1937 40.6666 44.161 40.6666Z" clip-rule="evenodd" fill-rule="evenodd"></path>
</svg>
