<svg xmlns="http://www.w3.org/2000/svg" fill="none" viewBox="0 0 170 60" height="60" width="170">
<path fill="#2E2E2E" d="M86.1552 28.4833H88.0082C89.2969 28.4833 90.5823 28.7654 90.5823 30.3091C90.5823 31.6963 89.218 32.1611 87.9574 32.1611H86.1554L86.1552 28.4833ZM79.6677 35.868H90.0927C93.8255 35.868 97.4806 35.4022 97.4806 30.8746C97.4806 29.0757 95.9369 27.1232 93.4396 26.7881V26.7352C95.8321 26.1189 97.1455 24.8043 97.1455 22.3384C97.1455 18.9168 94.0839 17.9168 90.9705 17.9168H79.6677V35.868ZM86.1554 21.3124H88.0311C89.2667 21.3124 90.4007 21.7221 90.4007 23.0617C90.4007 24.4206 89.0872 24.7806 87.8774 24.7806H86.1541V21.3124H86.1554ZM107.958 30.3849C107.958 31.5426 107.286 32.7784 105.95 32.7784C104.943 32.7784 104.431 32.4162 104.431 31.4919C104.431 30.1059 105.976 29.9751 107.313 29.9751H107.96V30.3848L107.958 30.3849ZM100.054 26.6822C101.342 26.041 102.987 25.5525 104.533 25.5525C106.158 25.5525 107.933 25.7578 107.958 27.4823C107.366 27.4282 106.337 27.3005 105.433 27.3005C102.214 27.3005 98.5099 28.1254 98.5099 32.2389C98.5099 35.0433 100.931 36.1762 103.424 36.1762C105.255 36.1762 106.906 35.4552 107.803 33.9361H107.856V35.8691H113.876V27.7146C113.876 22.827 109.373 22.1578 105.666 22.1578C103.146 22.1578 101.984 22.3892 100.055 22.9287V26.6822H100.054ZM115.704 22.4681H121.834V24.7806H121.886C122.657 22.9038 124.432 22.1579 126.262 22.1579C129.709 22.1579 130.969 23.9589 130.969 26.5535V35.867H124.484V28.1492C124.484 27.3773 124.484 26.3233 123.353 26.3233C122.192 26.3233 122.192 27.3773 122.192 28.1491V35.867H115.706V22.4681H115.704ZM143.406 22.466H150.738L146.209 28.3795L150.922 35.8682H143.355L139.701 29.36H139.644V35.8682H133.16V16.5773H139.644V27.7871H139.701L143.406 22.466Z"></path>
<path fill="#2E2E2E" d="M19.0784 50H66.6459V10H19.0784V50ZM50.3032 41.3469H39.2221V22.574H44.7886V38.0258H50.1399C53.8352 38.0258 55.3886 35.6107 55.3886 29.4183C55.3886 23.1782 53.6211 21.3663 49.874 21.3663H37.6697V41.3469H32.1551V21.3665H24.0719V18.0422H51.5854C58.2244 18.0422 61.3821 21.2626 61.3821 29.3687C61.3821 40.0378 56.6708 41.347 50.3032 41.347"></path>
</svg>
