<svg xmlns="http://www.w3.org/2000/svg" fill="none" viewBox="0 0 170 61" height="61" width="170">
<path fill="#2E2E2E" d="M100.19 32.8842C99.8617 31.298 99.2342 29.9868 98.329 28.7921C96.4738 26.3435 93.4686 24.7962 89.4009 24.7962C83.0778 24.7962 79.1897 29.0903 78.0387 33.6165C77.0043 30.4249 74.2371 28.2715 71.3145 27.3624C73.5144 25.7588 74.6664 23.4636 74.6664 20.845C74.6664 18.4139 73.6543 16.2013 71.9604 14.7608C69.4749 12.6473 66.087 12.2161 61.9124 12.2161H53.7526V47.4506C56.0642 47.4506 58.441 47.4399 60.7575 47.4506C62.8186 47.4603 64.8311 47.4477 66.7086 47.3729C72.65 47.1349 76.7168 44.1443 78.0183 39.6531C78.4651 41.6501 79.3247 43.277 80.4475 44.5125C82.7349 47.031 86.0528 48.0149 89.3931 48.0149C93.5056 48.0149 96.4797 46.8222 98.5106 44.9942L95.6035 41.5772C94.1408 42.6806 92.2594 43.3304 90.1478 43.3304C86.0052 43.3178 84.1792 40.6963 84.016 38.1767H100.19V47.4496H106.248V12.3919H100.19V32.8832V32.8842ZM59.9776 16.9764H61.6608C63.2868 16.9754 64.5708 17.1502 65.4945 17.5096C67.3196 18.2177 68.1879 19.6698 68.1879 21.4822C68.1898 23.0158 67.6032 25.4247 64.3785 26.0832C63.8394 26.1929 63.0624 26.2541 61.9639 26.2541H59.9776V16.9764ZM66.8271 42.294C66.0685 42.43 65.1409 42.4611 64.3882 42.4611H59.9776V30.9659H63.9239C65.1691 30.9659 66.5785 31.1057 67.3866 31.3175C70.1548 32.044 71.7457 34.0293 71.7457 36.6576C71.7457 39.2859 70.281 41.6714 66.8271 42.294ZM84.1268 33.7962C84.661 31.2291 86.5579 29.3827 89.3543 29.3827C92.1506 29.3827 94.0155 31.0377 94.4972 33.7962H84.1268Z"></path>
<path fill="#2E2E2E" d="M116.247 12.392H110.292V47.4507H116.247V12.392Z"></path>
</svg>
