<svg xmlns="http://www.w3.org/2000/svg" fill="none" viewBox="0 0 171 61" height="61" width="171">
<path fill="#2E2E2E" d="M105.753 50.8744C105.753 52.6625 105.033 53.6993 103.624 54.2511C98.1497 56.394 91.6661 57.5 85.4997 57.5C79.3336 57.5 72.8506 56.394 67.3764 54.2511C65.9673 53.6993 65.2471 52.6625 65.2471 50.875V3.5H105.753V50.8744ZM88.3615 12.9427L88.3592 12.947C88.361 12.9456 88.3615 12.9444 88.3615 12.9427ZM88.3615 12.9427V12.9418C88.3622 12.9395 88.3634 12.9373 88.365 12.9355L88.3615 12.9427ZM76.1102 32.3346C70.502 28.7769 68.6498 27.203 68.4922 24.8688C68.4648 24.3954 68.5713 23.5976 68.7659 23.0264L68.2382 22.6691C67.8151 23.3529 67.5464 24.2549 67.5464 25.0815C67.5464 26.4297 67.9704 27.4497 68.4922 28.2649C69.2799 29.497 70.1092 30.2717 72.1507 31.8272C74.3507 33.5044 75.8518 35.4628 76.7172 37.5107H77.0295V35.1875C80.0038 36.8991 82.6238 38.5128 83.9134 41.3954H84.2257C83.7209 38.4089 82.0583 36.1062 76.1102 32.3346ZM87.9173 46.8973C88.9388 46.7294 89.9153 45.9209 89.9153 44.7017C89.9153 43.6009 89.4546 42.3926 86.2663 42.3926H80.885V42.4801C81.0484 42.5309 81.3056 42.6651 81.4747 42.8342C81.8393 43.1968 81.9605 43.738 81.9769 44.4578V52.6406H86.4361C88.8892 52.6406 90.6637 51.6924 90.6637 49.5141C90.664 47.7422 89.308 46.9903 87.9173 46.8973ZM85.623 43.3676C86.7637 43.3676 87.5372 43.619 87.5372 44.857C87.5372 46.176 86.4998 46.5386 85.3173 46.5386H84.2996V43.3676H85.623ZM85.737 51.6731H84.2996V47.4873H85.6718C87.5577 47.4873 88.2824 48.0579 88.2824 49.4948C88.2827 51.0485 87.3372 51.6731 85.737 51.6731ZM76.9152 52.64H79.82L76.1079 47.8201C77.5955 47.4172 78.7099 46.5894 78.7099 45.0882C78.7099 43.3243 77.6717 42.3923 74.9551 42.3923H69.3408V42.4798C69.5472 42.5543 69.7787 42.6896 69.9302 42.8429C70.3239 43.2363 70.4408 43.8352 70.4408 44.648V52.64H72.7712V48.0975H73.623L76.9152 52.64ZM72.7712 43.3676H74.3408C75.6483 43.3676 76.3315 43.7567 76.3315 45.1664C76.3315 46.4251 75.4385 47.1715 74.0083 47.1715H72.7712V43.3676ZM100.088 43.796C100.684 44.1376 100.883 44.5797 100.904 44.625L100.905 44.6287C100.935 44.663 101.002 44.6541 101.002 44.6541L101.51 42.8998C101.51 42.8998 100.599 42.235 98.4305 42.235C95.1514 42.235 92.6968 43.9132 92.6968 47.586C92.6968 51.7245 95.6204 52.799 98.1993 52.799C100.599 52.799 101.541 52.0238 101.541 52.0238V50.8219C101.541 50.8219 100.694 51.6258 98.8765 51.6258C97.3753 51.6258 95.1721 50.9301 95.1254 47.5274C95.0809 44.3851 96.43 43.3613 98.236 43.3613C99.2428 43.3616 99.7467 43.6006 100.088 43.796ZM101.97 41.4L102.709 38.8915C102.179 38.1113 101.506 37.5181 100.443 37.1663C102.816 35.2428 103.548 32.6541 103.548 30.6478C103.548 28.5704 102.775 26.5672 101.382 25.0269C101.758 24.397 102.402 23.3209 102.692 22.837C102.759 22.7244 102.808 22.6439 102.829 22.6085C103.008 22.308 103.101 21.8407 103.041 21.4704C102.968 21.0282 102.786 20.7277 102.318 20.4786C101.788 20.1963 98.5751 18.4899 98.5751 18.4899H90.9725L88.2637 20.1398V15.3522H87.3926C87.6062 15.1875 87.7906 14.988 87.9378 14.7619L87.8443 14.5472C86.9057 15.2971 86.391 15.2442 84.5897 14.6693C83.5662 14.3425 82.6645 14.6953 82.0277 15.1969C82.0163 15.0958 82.0163 14.9938 82.0277 14.8927C82.082 14.3983 82.4685 13.8651 83.8288 13.9517C84.8434 14.0158 85.6902 14.0302 85.98 14.0288C86.8716 14.0259 87.42 13.9119 87.7831 13.6302C88.3861 13.162 88.4989 12.5796 88.5356 12.2566C88.5858 11.8121 88.6129 11.1078 88.6129 10.5851V7.47883H76.6741V5.37555H73.6039C71.6606 5.37555 70.0523 6.83546 70.0523 8.75286C70.0523 10.5941 71.4219 11.9807 73.2391 11.9807H73.4256V10.7551H73.2391C72.202 10.7551 71.7483 9.89239 71.8086 8.86889C71.8716 7.80152 72.7632 7.25138 73.537 7.25138H74.9848V9.35408H79.2312V10.3603H78.0913V10.9667L80.4726 11.8857V9.35408H86.7671V10.8163V10.8164C86.7671 11.2467 86.7671 11.5001 86.7244 11.7477C86.6895 11.9524 86.6416 12.1105 86.4874 12.2652C86.3402 12.4125 86.1131 12.4598 85.8088 12.4785C85.4001 12.5034 84.1913 12.5288 83.4637 12.5288C82.106 12.5288 80.4385 12.8489 80.4385 14.8511C80.4385 17.1564 82.4691 17.7842 83.5428 17.7655C84.5184 17.7481 85.1819 17.4162 85.5101 17.1287H86.4242V18.5901C85.2604 18.1704 83.8649 18.4345 82.3576 18.7439C81.3122 18.9569 80.2321 19.1122 79.079 19.1209C77.1204 19.1359 75.2494 17.708 75.0142 15.2321L74.0952 14.6797C73.9405 17.3259 74.7856 19.0349 77.5071 20.4544C80.8048 22.1741 83.0227 23.767 83.9134 26.63H84.2257V24.4508C86.9054 26.1982 88.5032 27.7069 89.2159 29.4116C89.5241 30.1493 89.85 31.3549 89.8962 32.3398H90.2085C90.3918 31.4894 90.5237 29.6381 89.9684 28.0613C89.8797 27.8097 89.7567 27.5791 89.6358 27.3524L89.6312 27.3438L92.2082 27.4636C92.1519 28.5439 92.1815 29.627 92.2968 30.7026L91.3795 30.7517V31.0516L92.3447 31.1073C92.4027 31.5509 92.4772 31.9923 92.5678 32.4304H92.8507C92.8358 31.9994 92.8401 31.5679 92.8636 31.1373L97.2682 31.3922C97.2474 32.3462 97.1497 33.2969 96.9761 34.2352L96.008 34.3576V34.5498L96.9022 34.6185C96.8289 34.9759 96.7455 35.3312 96.652 35.6839H96.9371C97.1264 35.3518 97.2989 35.0105 97.4541 34.6612L100.948 34.9357C100.385 35.7762 99.7418 36.4511 98.9186 36.9793C98.7359 36.9905 98.3841 37.0361 98.2149 37.0633C97.6388 37.1555 95.3986 37.5031 93.5469 37.7904C92.5643 37.9428 91.6911 38.0783 91.234 38.1497C91.0949 37.5779 90.9263 37.0823 90.7578 36.7155C89.3377 33.626 87.6504 32.4783 79.9432 27.2359C79.4231 26.8822 78.8756 26.5097 78.2989 26.1168C75.3658 24.118 70.7462 20.8634 69.3749 18.2114C68.9353 17.3622 68.7263 16.3667 68.7278 15.4714C68.7286 14.501 69.019 13.5477 69.581 12.7932V11.9111C68.4498 12.5256 67.5432 14.1728 67.5657 15.995C67.5778 17.015 67.6763 17.7652 68.0209 18.6928C68.5909 20.2255 69.5737 21.5584 72.009 23.7875C74.2641 25.853 75.8452 27.5888 76.7172 29.9144H77.0292V27.5692C77.2825 27.7532 77.5374 27.9379 77.7911 28.1218C78.0975 28.3439 78.4023 28.5648 78.7009 28.7818C80.7554 30.2743 82.9257 32.3813 83.9128 34.6249H84.2251V32.4512C87.9413 34.9845 90.5982 37.3516 91.1806 42.1288H91.4923C91.6491 40.9711 91.5555 39.7432 91.3532 38.6946H97.661C99.6702 38.6946 101.591 39.273 101.591 41.4H101.97ZM82.7132 16.1006C83.3266 15.5072 83.9212 15.3727 84.99 15.6108C84.7773 15.8873 84.4041 16.2533 83.8051 16.296C83.3889 16.3266 83.0131 16.2472 82.7132 16.1006ZM87.3822 20.6769L84.3729 22.51C83.4516 21.9146 82.1077 21.0426 81.7284 20.78C81.9949 20.7386 82.3511 20.6623 82.7464 20.5776C83.6067 20.3932 84.6523 20.1691 85.362 20.1796C86.1376 20.1903 86.7911 20.3808 87.3822 20.6769ZM98.2239 22.1091L97.8079 22.704C96.998 22.4223 96.0311 22.3331 95.1993 22.3328C92.659 22.3328 90.0936 23.7099 88.6334 25.8692C87.9638 25.0812 87.0223 24.3007 85.9988 23.5791L91.4482 20.2483H98.163L101.2 21.8623L100.027 23.8216C99.6682 23.5794 99.3989 23.399 99.1068 23.2547L99.5025 22.0358L97.6861 21.0415L97.5779 21.2351L98.2239 22.1091ZM96.9319 27.6835C97.1192 28.5902 97.2292 29.5112 97.2607 30.4365L92.8939 30.6709C92.9696 29.6924 93.1301 28.6193 93.3742 27.5178L96.9319 27.6835ZM98.5255 30.369C98.5849 29.5617 98.5734 28.6877 98.4585 27.7545L101.392 27.8913C101.74 28.6116 101.963 29.3855 102.052 30.1802L98.5255 30.369ZM95.6236 23.9685C95.8542 24.3911 96.2941 25.2899 96.6621 26.5821L93.5567 26.7573C93.7936 25.825 94.0885 24.9085 94.4396 24.013C94.4829 24.0085 94.5266 24.0037 94.5706 23.9989C94.7701 23.9772 94.975 23.9549 95.177 23.9549C95.326 23.9547 95.4749 23.9592 95.6236 23.9685ZM98.2455 26.4938C98.0926 25.7869 97.8903 25.0916 97.64 24.413C98.7075 24.8284 99.6556 25.5016 100.4 26.3725L98.2455 26.4938ZM102.063 31.6693C102.019 32.4269 101.856 33.0247 101.604 33.6476L97.6697 34.1486C98.0095 33.2807 98.2545 32.3786 98.4002 31.458L102.063 31.6693ZM89.7421 26.9631C90.4963 25.8741 91.3425 25.1158 92.5687 24.5567C92.4852 24.9464 92.3392 25.698 92.2486 26.8306L89.7421 26.9631Z" clip-rule="evenodd" fill-rule="evenodd"></path>
</svg>
