<svg xmlns="http://www.w3.org/2000/svg" fill="none" viewBox="0 0 170 60" height="60" width="170">
<path fill="#2E2E2E" d="M94.8413 17.8945L101.745 15.2767L94.8413 12.5841V8.91919L106.665 13.7808V16.7725L94.8413 21.6341V17.8945Z"></path>
<path fill="#2E2E2E" d="M29.5534 41.081C27.0565 41.081 25.0002 39.8095 25.0002 36.9673V36.8177C25.0002 33.3772 27.9378 32.1805 31.5363 32.1805H33.2254V31.5074C33.2254 30.0863 32.6379 29.2635 31.1691 29.2635C29.8472 29.2635 29.1862 30.0115 29.1128 31.0586H25.4408C25.7346 27.9172 28.1581 26.4214 31.3894 26.4214C34.6942 26.4214 37.1177 27.8425 37.1177 31.3578V40.7818H33.3723V39.1363C32.6379 40.1834 31.3894 41.081 29.5534 41.081ZM33.2254 36.1446V34.7983H31.6832C29.7737 34.7983 28.819 35.3218 28.819 36.5933V36.7429C28.819 37.7152 29.4066 38.3884 30.7285 38.3884C32.0504 38.3136 33.2254 37.5657 33.2254 36.1446ZM45.857 41.081C42.0381 41.081 39.2474 38.6876 39.2474 33.9008V33.6764C39.2474 28.8896 42.185 26.3466 45.857 26.3466C49.0149 26.3466 51.5853 27.992 51.879 31.6569H48.207C47.9867 30.3106 47.2523 29.4131 45.9304 29.4131C44.3148 29.4131 43.1397 30.7594 43.1397 33.5268V33.9755C43.1397 36.8177 44.1679 38.0892 45.9304 38.0892C47.2523 38.0892 48.207 37.1169 48.4274 35.5462H51.9525C51.7321 38.8371 49.6024 41.081 45.857 41.081ZM60.2511 41.081C56.4323 41.081 53.6416 38.6876 53.6416 33.9008V33.6764C53.6416 28.8896 56.5791 26.3466 60.2511 26.3466C63.409 26.3466 65.9794 27.992 66.2731 31.6569H62.6012C62.3808 30.3106 61.6465 29.4131 60.3245 29.4131C58.7089 29.4131 57.5338 30.7594 57.5338 33.5268V33.9755C57.5338 36.8177 58.562 38.0892 60.3245 38.0892C61.6465 38.0892 62.6012 37.1169 62.8215 35.5462H66.3466C66.1263 38.8371 63.9965 41.081 60.2511 41.081ZM74.7187 41.081C70.7529 41.081 68.0357 38.6876 68.0357 33.9755V33.6764C68.0357 28.9644 70.8998 26.3466 74.6452 26.3466C78.0969 26.3466 80.961 28.2912 80.961 33.0032V34.7235H71.928C72.0749 37.2665 73.1764 38.2388 74.7921 38.2388C76.2609 38.2388 77.0687 37.4161 77.3625 36.4437H80.961C80.5204 39.0615 78.3172 41.081 74.7187 41.081ZM72.0014 32.1057H77.1422C77.0687 30.0115 76.114 29.1139 74.5718 29.1139C73.3968 29.1887 72.2952 29.8619 72.0014 32.1057ZM83.3111 26.7205H87.2034V28.8148C87.8643 27.4685 89.2597 26.4214 91.3894 26.4214C93.8864 26.4214 95.5755 27.992 95.5755 31.3578V40.7818H91.6832V31.9561C91.6832 30.3106 91.0222 29.5627 89.6269 29.5627C88.305 29.5627 87.2034 30.3854 87.2034 32.1805V40.7818H83.3111V26.7205ZM102.699 22.4573V26.7205H105.343V29.6375H102.699V36.2942C102.699 37.3413 103.14 37.8648 104.095 37.8648C104.682 37.8648 105.049 37.79 105.416 37.6404V40.707C104.976 40.8566 104.168 41.0062 103.213 41.0062C100.202 41.0062 98.8068 39.5851 98.8068 36.7429V29.6375H97.1911V26.7205H98.8068V24.1028L102.699 22.4573ZM119.884 40.7818H116.065V38.6876C115.404 40.0338 114.082 41.081 112.026 41.081C109.529 41.081 107.693 39.5103 107.693 36.2194V26.7205H111.585V35.6958C111.585 37.3413 112.246 38.0892 113.568 38.0892C114.89 38.0892 115.992 37.1917 115.992 35.4714V26.7205H119.884V40.7818ZM122.748 26.7205H126.64V29.3383C127.448 27.4685 128.77 26.571 130.826 26.571V30.4602C128.183 30.4602 126.64 31.283 126.64 33.6016V40.8566H122.748V26.7205ZM138.684 41.081C134.719 41.081 132.002 38.6876 132.002 33.9755V33.6764C132.002 28.9644 134.866 26.3466 138.611 26.3466C142.063 26.3466 144.927 28.2912 144.927 33.0032V34.7235H135.967C136.114 37.2665 137.216 38.2388 138.831 38.2388C140.3 38.2388 141.108 37.4161 141.402 36.4437H145C144.413 39.0615 142.283 41.081 138.684 41.081ZM135.894 32.1057H141.108C141.035 30.0115 140.08 29.1139 138.538 29.1139C137.363 29.1887 136.261 29.8619 135.894 32.1057Z"></path>
</svg>
