<svg xmlns="http://www.w3.org/2000/svg" fill="none" viewBox="0 0 171 61" height="61" width="171">
<path fill="#2E2E2E" d="M74.7445 33.6669H85.2969L79.7229 24.5909L69.4752 40.9835H64.8153L77.2787 21.3166C77.5504 20.9241 77.9114 20.603 78.3315 20.3802C78.7516 20.1574 79.2186 20.0393 79.6932 20.0359C80.1679 20.0325 80.6364 20.1438 81.0596 20.3606C81.4829 20.5773 81.8484 20.8931 82.1256 21.2816L94.6237 40.9835H89.9637L87.7688 37.3182H77.0918L74.7652 33.6669M123.186 37.3182V20.2344H119.225V39.0008C119.224 39.2616 119.276 39.5198 119.377 39.7598C119.479 39.9998 119.627 40.2166 119.814 40.3971C120.001 40.5905 120.225 40.7439 120.473 40.8482C120.72 40.9526 120.986 41.0057 121.254 41.0045H139.257L141.604 37.3392H123.165M57.7042 34.2673C59.5497 34.2673 61.3197 33.5281 62.6247 32.2122C63.9298 30.8964 64.6629 29.1117 64.6629 27.2509C64.6629 25.39 63.9298 23.6053 62.6247 22.2895C61.3197 20.9736 59.5497 20.2344 57.7042 20.2344H40.3938V40.9835H44.3475V23.9067H57.4618C58.3451 23.9067 59.1922 24.2605 59.8168 24.8903C60.4414 25.52 60.7923 26.3742 60.7923 27.2648C60.7923 28.1554 60.4414 29.0096 59.8168 29.6394C59.1922 30.2691 58.3451 30.6229 57.4618 30.6229H46.307L58.1196 40.9835H63.8597L55.9246 34.2673H57.7042ZM16.0762 40.9835H28.0342C30.716 40.9134 33.2645 39.7899 35.1367 37.8526C37.0088 35.9153 38.0566 33.3174 38.0566 30.6125C38.0566 27.9076 37.0088 25.3096 35.1367 23.3723C33.2645 21.435 30.716 20.3116 28.0342 20.2414H16.0762C14.703 20.2055 13.3365 20.4472 12.0575 20.9522C10.7784 21.4572 9.61251 22.2154 8.62866 23.182C7.64481 24.1486 6.86288 25.304 6.32898 26.5802C5.79508 27.8564 5.52002 29.2274 5.52002 30.6125C5.52002 31.9975 5.79508 33.3685 6.32898 34.6447C6.86288 35.9209 7.64481 37.0763 8.62866 38.0429C9.61251 39.0095 10.7784 39.7677 12.0575 40.2727C13.3365 40.7778 14.703 41.0194 16.0762 40.9835ZM27.7642 37.3322H16.3393C14.6108 37.276 12.9717 36.5441 11.7687 35.2914C10.5656 34.0386 9.89301 32.3632 9.89301 30.6194C9.89301 28.8757 10.5656 27.2003 11.7687 25.9475C12.9717 24.6948 14.6108 23.9629 16.3393 23.9067H27.7642C28.6565 23.8777 29.5455 24.0298 30.3784 24.3541C31.2113 24.6784 31.971 25.1682 32.6124 25.7944C33.2538 26.4206 33.7638 27.1704 34.1121 27.9993C34.4604 28.8282 34.6399 29.7192 34.6399 30.6194C34.6399 31.5197 34.4604 32.4107 34.1121 33.2396C33.7638 34.0684 33.2538 34.8183 32.6124 35.4445C31.971 36.0707 31.2113 36.5605 30.3784 36.8848C29.5455 37.209 28.6565 37.3612 27.7642 37.3322ZM102.884 40.9835H115.091L117.404 37.3322H103.154C102.262 37.3612 101.373 37.209 100.54 36.8848C99.7071 36.5605 98.9474 36.0707 98.306 35.4445C97.6646 34.8183 97.1546 34.0684 96.8063 33.2396C96.458 32.4107 96.2785 31.5197 96.2785 30.6194C96.2785 29.7192 96.458 28.8282 96.8063 27.9993C97.1546 27.1704 97.6646 26.4206 98.306 25.7944C98.9474 25.1682 99.7071 24.6784 100.54 24.3541C101.373 24.0298 102.262 23.8777 103.154 23.9067H114.752L117.093 20.2414H102.884C101.511 20.2055 100.145 20.4472 98.8654 20.9522C97.5864 21.4572 96.4205 22.2154 95.4367 23.182C94.4528 24.1486 93.6709 25.304 93.137 26.5802C92.6031 27.8564 92.328 29.2274 92.328 30.6125C92.328 31.9975 92.6031 33.3685 93.137 34.6447C93.6709 35.9209 94.4528 37.0763 95.4367 38.0429C96.4205 39.0095 97.5864 39.7677 98.8654 40.2727C100.145 40.7778 101.511 41.0194 102.884 40.9835ZM151.263 37.3322C149.812 37.3327 148.401 36.8557 147.244 35.9736C146.087 35.0915 145.247 33.8526 144.851 32.4451H161.76L164.087 28.7868H144.851C145.246 27.3787 146.085 26.1391 147.243 25.2569C148.4 24.3746 149.812 23.898 151.263 23.8997H162.868L165.188 20.2344H150.993C148.311 20.3046 145.763 21.428 143.891 23.3653C142.018 25.3026 140.971 27.9006 140.971 30.6055C140.971 33.3104 142.018 35.9083 143.891 37.8456C145.763 39.7829 148.311 40.9064 150.993 40.9765H163.2L165.52 37.3252H151.256"></path>
</svg>
