<svg width="160" height="50" viewBox="0 0 160 50" fill="none" xmlns="http://www.w3.org/2000/svg">
<g clip-path="url(#clip0_278_959)">
<path d="M16.974 0.310547H21.8461V1.22817H20.9284C20.7679 1.22817 20.4881 1.41334 20.0849 1.77957C19.6816 2.1458 19.48 2.43384 19.48 2.62313V16.6138C19.48 16.8072 19.6816 17.087 20.0849 17.4574C20.4881 17.8277 20.7679 18.0129 20.9284 18.0129H21.8461V18.9264H14.6573V18.0047H15.5749C15.7354 18.0047 16.0111 17.8195 16.3979 17.4491C16.7847 17.0788 16.9781 16.799 16.9781 16.6056V3.05931L10.2214 19.2597L3.47298 2.77949V16.6097C3.47298 16.8031 3.66638 17.0829 4.04907 17.4533C4.43176 17.8236 4.71157 18.0088 4.87205 18.0088H5.78556V18.9223H0V18.0047H0.917625C1.11103 18.0047 1.39907 17.8195 1.78587 17.4491C2.17267 17.0788 2.36196 16.799 2.36196 16.6056V2.62313C2.36196 2.43384 2.16856 2.14991 1.78587 1.77957C1.40318 1.40923 1.11103 1.22817 0.917625 1.22817H0V0.310547H5.39876L10.995 14.2477H11.1391L16.974 0.310547ZM28.5492 17.0418C29.3703 17.0907 30.1887 16.9082 30.9112 16.5151C31.5106 16.1046 32.0053 15.5591 32.3555 14.9226H33.1291C32.7853 16.1179 32.1275 17.1993 31.2239 18.054C30.2328 18.8761 28.9664 19.2908 27.681 19.2144C26.9167 19.2421 26.1565 19.0906 25.4613 18.7719C24.7661 18.4532 24.1551 17.9763 23.6772 17.3792C22.6746 16.1406 22.1452 14.5858 22.1835 12.9927C22.1388 12.1401 22.2646 11.2872 22.5536 10.4838C22.8426 9.68044 23.2889 8.94279 23.8665 8.31404C24.3831 7.75843 25.0102 7.31694 25.7075 7.0179C26.4048 6.71886 27.1569 6.56887 27.9155 6.57755C28.7405 6.55864 29.5608 6.70701 30.3269 7.01373C31.0222 7.31002 31.659 7.72807 32.2074 8.24821L30.4503 11.0093L29.7261 11.0546C29.8905 10.2329 29.8409 9.38266 29.5821 8.58563C29.4283 8.21472 29.1546 7.9061 28.8048 7.70915C28.4549 7.5122 28.049 7.43831 27.6522 7.49929C27.1349 7.46642 26.618 7.56907 26.1525 7.79712C25.687 8.02516 25.2891 8.3707 24.9981 8.7996C24.3769 9.83155 24.0749 11.0241 24.1298 12.2273C24.0951 13.474 24.5148 14.6908 25.3108 15.6509C25.7109 16.1118 26.21 16.4763 26.7708 16.7172C27.3315 16.958 27.9395 17.069 28.5492 17.0418ZM40.5072 18.9223H33.2238V18.0047H34.1537C34.3471 18.0047 34.6352 17.8195 35.022 17.4491C35.4088 17.0788 35.5981 16.799 35.5981 16.6056V2.62313C35.5981 2.43384 35.4088 2.14991 35.022 1.77957C34.6352 1.40923 34.3348 1.22817 34.1537 1.22817H33.2238V0.310547H40.5072V1.22817H39.5895C39.3961 1.22817 39.1081 1.41334 38.7213 1.77957C38.3345 2.1458 38.1452 2.43384 38.1452 2.62313V10.2439L44.799 2.81653C44.9266 2.65604 44.799 2.35154 44.4616 1.90302C44.1242 1.45449 43.8485 1.22817 43.688 1.22817H42.795V0.310547H49.5435V1.22817H48.6259C48.1726 1.38402 47.7565 1.632 47.4038 1.95651C46.7577 2.45441 46.375 2.77949 46.2433 2.89882L41.7169 7.76676L48.2267 16.4081C48.5426 16.7762 48.9066 17.1001 49.309 17.371C49.6321 17.6681 50.0214 17.8839 50.4447 18.0005H51.7944C52.1139 17.9343 52.403 17.7652 52.6173 17.5191C52.9712 17.194 53.1482 16.9224 53.1482 16.6961V9.08765C53.1482 8.89425 52.9712 8.63501 52.6173 8.31404C52.403 8.06797 52.1139 7.89887 51.7944 7.8326H51.066V6.91498H55.3579V16.7043C55.3579 16.9307 55.543 17.2022 55.9134 17.5273C56.1264 17.7607 56.4021 17.9278 56.7076 18.0088H58.2054C58.3659 18.0088 58.6169 17.8483 58.9749 17.5273C59.3329 17.2064 59.5057 16.9307 59.5057 16.7043V9.08765C59.5057 8.89425 59.3288 8.63501 58.9749 8.31404C58.621 7.99308 58.3659 7.8326 58.2054 7.8326H57.4318V6.91498H61.2422L61.7236 9.36335C62.3779 8.67246 63.0791 8.02762 63.8222 7.43345C64.577 6.86603 65.5039 6.57546 66.4475 6.61047C66.8906 6.60244 67.3308 6.68395 67.7416 6.85011C68.1524 7.01628 68.5254 7.26367 68.8383 7.57748C69.1676 7.90393 69.4254 8.29528 69.5955 8.72668C69.7655 9.15808 69.8439 9.62011 69.8259 10.0835V16.7043C69.8259 16.9307 70.0028 17.2022 70.3567 17.5273C70.7106 17.8524 70.9657 18.0088 71.1262 18.0088H71.8998V18.9223H65.5834V18.0047H66.25C66.5693 17.9375 66.8581 17.7686 67.073 17.5232C67.4269 17.1981 67.6038 16.9265 67.6038 16.7002V10.2439C67.6273 9.70378 67.4549 9.17332 67.1183 8.75023C66.9377 8.54981 66.7137 8.39334 66.4633 8.29278C66.213 8.19222 65.943 8.15023 65.6739 8.17002C64.72 8.19908 63.7997 8.52889 63.0445 9.11234C62.1639 9.7378 61.7236 10.2604 61.7236 10.6801V16.7043C61.7236 16.9307 61.9006 17.2022 62.2545 17.5273C62.4688 17.7734 62.7579 17.9425 63.0774 18.0088H63.7523V18.9223H46.4985L40.0257 9.61847L38.1452 11.643V16.6097C38.1452 16.8031 38.3345 17.0829 38.7213 17.4533C39.1081 17.8236 39.3961 18.0088 39.5895 18.0088H40.5072V18.9223ZM46.9676 39.9083L46.91 39.8507C47.5231 40.3651 48.1444 40.8794 48.7699 41.3938C49.3954 41.9082 50.062 42.4061 50.7697 42.8916H51.8767V43.8545H49.8521C49.0279 43.8685 48.2089 43.7217 47.4408 43.4224C46.6204 43.0552 45.8699 42.5484 45.2228 41.9246C44.493 42.6596 43.6129 43.2281 42.6428 43.5912C41.5204 43.9815 40.3373 44.1682 39.1492 44.1426C37.6392 44.1505 36.1773 43.611 35.0343 42.6242C34.4428 42.1469 33.9695 41.5395 33.6511 40.8493C33.3328 40.1591 33.1781 39.4048 33.1991 38.645C33.1869 37.5149 33.4706 36.4013 34.0221 35.4148C34.557 34.4672 35.3068 33.6582 36.2112 33.0529C35.7785 32.5035 35.4137 31.9039 35.1249 31.267C34.8399 30.5975 34.6997 29.8753 34.7134 29.1478C34.6789 28.5808 34.7686 28.0132 34.9761 27.4844C35.1837 26.9557 35.504 26.4785 35.9149 26.0863C36.8339 25.3211 38.0088 24.9329 39.2027 25C39.8906 24.9768 40.5772 25.0743 41.2314 25.288C41.6605 25.4645 42.1174 25.5634 42.5811 25.5802C42.7593 25.5846 42.9375 25.568 43.1119 25.5308C43.2579 25.4829 43.3791 25.3794 43.4493 25.2428H44.2723V29.6293H43.4493C43.3216 28.7235 42.8856 27.8893 42.2148 27.2673C41.841 26.8208 41.3721 26.4634 40.8424 26.2214C40.3127 25.9793 39.7356 25.8587 39.1534 25.8682C38.3076 25.8218 37.4718 26.0689 36.7873 26.5678C36.5001 26.8023 36.2719 27.101 36.1211 27.4397C35.9703 27.7785 35.9011 28.1479 35.919 28.5182C35.9142 29.2437 36.1714 29.9465 36.6433 30.4975C37.1625 31.1029 37.8264 31.5671 38.5732 31.8472C39.761 33.1365 41.0462 34.43 42.4288 35.7276C43.8114 37.0251 45.1296 38.239 46.3833 39.3693C46.7264 38.8191 46.9792 38.2176 47.1322 37.5875C47.2829 36.9122 47.3561 36.2219 47.3503 35.5301C47.367 35.1585 47.3044 34.7877 47.1668 34.4421C47.0292 34.0966 46.8196 33.7844 46.552 33.5261C45.9627 33.0062 45.1927 32.7388 44.4081 32.7813V31.8472H51.0249V32.7155H50.3048C50.1443 32.7155 49.8274 32.987 49.3624 33.5384C49.0159 33.8628 48.7725 34.2822 48.6629 34.7441V34.7935C48.631 35.7196 48.469 36.6366 48.1815 37.5176C47.9049 38.3707 47.4952 39.1748 46.9676 39.9001V39.9083ZM40.6512 42.7065C41.4121 42.7167 42.1696 42.6027 42.8938 42.369C43.5362 42.1535 44.1445 41.8473 44.7003 41.4596L44.5562 41.365C43.1846 40.1415 41.8349 38.8878 40.5072 37.604C39.1794 36.3201 37.8928 34.9691 36.6474 33.5508C36.1876 34.0325 35.8132 34.5892 35.5405 35.1967C35.2535 35.9327 35.1218 36.72 35.1537 37.5093C35.1723 38.1994 35.3392 38.8774 35.6431 39.4973C35.947 40.1171 36.3807 40.6643 36.9148 41.1016C37.9092 42.0931 39.2473 42.6634 40.6512 42.6941V42.7065ZM54.0082 3.97693H53.9588C53.5545 3.98057 53.1653 3.8237 52.8766 3.54075C52.7283 3.40708 52.6104 3.24313 52.5308 3.05998C52.4513 2.87683 52.4121 2.67874 52.4157 2.4791V2.43384C52.404 2.22226 52.4392 2.0107 52.5189 1.81435C52.5986 1.61799 52.7207 1.4417 52.8766 1.29812C53.1947 1.03448 53.595 0.890204 54.0082 0.890204C54.4214 0.890204 54.8216 1.03448 55.1398 1.29812C55.2956 1.4417 55.4178 1.61799 55.4975 1.81435C55.5771 2.0107 55.6124 2.22226 55.6006 2.43384H55.5513C55.5842 2.43384 55.6006 2.43384 55.6006 2.4791C55.6043 2.67874 55.565 2.87683 55.4855 3.05998C55.406 3.24313 55.2881 3.40708 55.1398 3.54075C54.8654 3.81759 54.4926 3.97444 54.1028 3.97693H54.0082ZM66.25 42.5995C67.5732 42.6758 68.8874 42.3393 70.0111 41.6366C70.984 40.9041 71.7614 39.943 72.2743 38.8384H73.2454C72.7128 40.4048 71.7204 41.7743 70.3979 42.7682C69.0377 43.7419 67.3954 44.2421 65.7233 44.1919C64.5048 44.2356 63.2925 43.9986 62.1801 43.4992C61.0678 42.9997 60.0852 42.2512 59.3082 41.3115C57.697 39.3894 56.84 36.947 56.8968 34.4396C56.8319 31.9998 57.6158 29.6131 59.1148 27.687C59.8422 26.7709 60.7763 26.04 61.8406 25.5544C62.9049 25.0688 64.069 24.8421 65.2378 24.893C66.1089 24.8731 66.9763 25.0126 67.7972 25.3045C68.4877 25.5769 69.2235 25.7165 69.9658 25.716C70.1972 25.7273 70.4282 25.6851 70.6406 25.5925C70.8198 25.5006 70.9825 25.3797 71.1221 25.2345H71.7969V31.7978H70.9739C70.8348 30.4735 70.3161 29.2175 69.4802 28.1808C69.0339 27.493 68.4176 26.9321 67.6909 26.5522C66.9643 26.1723 66.1519 25.9863 65.3324 26.0123C64.6335 25.9751 63.9345 26.0824 63.2789 26.3273C62.6233 26.5723 62.0253 26.9497 61.522 27.436C60.4587 28.7159 59.8764 30.3273 59.876 31.9912V31.8966C59.8431 32.2505 59.8184 32.6044 59.802 32.9582C59.802 33.3121 59.7773 33.6783 59.7773 34.0651C59.7773 34.5137 59.7773 34.9745 59.8267 35.4395C59.876 35.9045 59.8925 36.3325 59.9213 36.7193C60.0496 38.2838 60.7138 39.7561 61.8018 40.8877C62.3815 41.4694 63.0772 41.9224 63.8436 42.2174C64.61 42.5123 65.43 42.6425 66.25 42.5995ZM81.4752 15.5481C81.5038 16.0502 81.4212 16.5525 81.2335 17.0191C81.0457 17.4856 80.7573 17.9051 80.3889 18.2474C79.6203 18.9095 78.629 19.2551 77.6154 19.2144C76.9535 19.2344 76.2951 19.1109 75.6855 18.8523C75.2046 18.618 74.6774 18.4942 74.1424 18.4902C73.9586 18.4724 73.7739 18.5142 73.6157 18.6095L73.2289 18.9223H72.6693V14.6798H73.3935C73.5279 15.5067 73.9246 16.2684 74.5251 16.8525C74.9067 17.2994 75.3853 17.6533 75.9244 17.8873C76.4635 18.1212 77.0489 18.2289 77.636 18.2022C78.2392 18.2336 78.8396 18.0998 79.3725 17.8154C79.5778 17.6846 79.7442 17.501 79.8543 17.2838C79.9643 17.0666 80.0139 16.8238 79.9979 16.5809C80.0199 16.2913 79.9621 16.0013 79.8308 15.7423C79.6995 15.4833 79.4997 15.2653 79.2531 15.1119C78.7655 14.812 78.2582 14.5453 77.7347 14.3136C77.2821 14.1243 76.8747 13.9474 76.5003 13.7869C76.1258 13.6264 75.702 13.4494 75.2205 13.256C74.5392 12.9413 73.9192 12.508 73.3894 11.9763C73.1423 11.7075 72.951 11.3923 72.8267 11.049C72.7023 10.7057 72.6475 10.3412 72.6652 9.97647C72.6351 9.51917 72.7061 9.06085 72.8733 8.63412C73.0404 8.2074 73.2995 7.82274 73.6322 7.50752C74.2508 7.06892 74.9687 6.79081 75.7214 6.69816C76.4741 6.60551 77.238 6.70122 77.9446 6.9767C78.3577 7.18218 78.8123 7.29055 79.2737 7.29355C79.4146 7.29813 79.5548 7.27289 79.6852 7.21948C79.8044 7.16652 79.8997 7.07121 79.9527 6.95201H80.5781V10.6554H79.8539C79.7369 9.92395 79.3912 9.24834 78.8663 8.72554C78.5441 8.33144 78.1348 8.01746 77.6707 7.80826C77.2066 7.59906 76.7003 7.50034 76.1917 7.51987C75.6338 7.47423 75.078 7.62888 74.6239 7.95605C74.4611 8.09011 74.331 8.25943 74.2433 8.4512C74.1556 8.64296 74.1127 8.85216 74.1177 9.06296C74.1028 9.28466 74.1436 9.50657 74.2363 9.70851C74.329 9.91045 74.4707 10.086 74.6486 10.2192C75.1046 10.536 75.5879 10.8114 76.0929 11.0422C76.5455 11.2315 76.9694 11.4085 77.3726 11.5689L78.6976 12.0998C79.3892 12.3904 80.0254 12.7983 80.5781 13.3054C80.8832 13.5888 81.1232 13.9349 81.2816 14.3199C81.44 14.7049 81.5131 15.1197 81.4958 15.5357L81.4752 15.5481ZM84.6313 33.1969C85.2447 33.7956 85.7234 34.5181 86.0356 35.3164C86.3478 36.1146 86.4863 36.9702 86.4419 37.8262C86.4856 38.6857 86.3469 39.5448 86.0348 40.347C85.7228 41.1491 85.2444 41.8761 84.6313 42.4801C83.5235 43.5805 82.0243 44.1961 80.4629 44.1919C78.8844 44.2036 77.3658 43.5878 76.241 42.4801C75.6286 41.8757 75.1511 41.1486 74.8398 40.3465C74.5284 39.5444 74.3903 38.6854 74.4346 37.8262C74.3884 37.0089 74.5104 36.1909 74.7932 35.4227C75.0761 34.6545 75.5136 33.9526 76.0788 33.3605C76.6439 32.7683 77.3247 32.2985 78.0788 31.9802C78.8329 31.6618 79.6444 31.5017 80.4629 31.5098C82.027 31.4985 83.5323 32.1048 84.6519 33.1969H84.6313ZM84.0511 39.8137V39.9083C84.084 39.5544 84.1046 39.2005 84.1211 38.8467C84.1375 38.4928 84.1458 38.1389 84.1458 37.785C84.1458 37.4311 84.1458 37.0896 84.1211 36.7522C84.0964 36.4148 84.084 36.0979 84.0511 35.8099C83.9761 34.9296 83.6115 34.0989 83.0142 33.4479C82.6738 33.1383 82.2738 32.9016 81.8386 32.7522C81.4034 32.6029 80.9422 32.5442 80.4835 32.5797C80.0345 32.5479 79.5837 32.6085 79.159 32.7579C78.7344 32.9072 78.3449 33.1421 78.0146 33.4479C77.4238 34.0836 77.0593 34.8965 76.9776 35.7605V35.6988C76.9136 36.0329 76.8737 36.3712 76.8583 36.711C76.8583 37.0649 76.8336 37.4188 76.8336 37.7686C76.8336 38.1183 76.8336 38.4681 76.8583 38.8055C76.8726 39.1223 76.9125 39.4375 76.9776 39.7478C77.073 40.6081 77.4356 41.4169 78.0146 42.0604C78.3376 42.3795 78.7248 42.6263 79.1504 42.7845C79.5761 42.9427 80.0305 43.0087 80.4835 42.978C80.9484 43.0188 81.4166 42.9603 81.8572 42.8064C82.2978 42.6524 82.7006 42.4066 83.0389 42.0851C83.6025 41.4505 83.956 40.6571 84.0511 39.8137ZM88.0055 19.2391C87.2447 19.2536 86.4906 19.0939 85.801 18.7722C85.1113 18.4506 84.5043 17.9755 84.0264 17.3833C82.9838 16.1514 82.4264 14.5815 82.4587 12.968C82.4088 11.3138 82.9765 9.70023 84.0511 8.44161C84.5281 7.85937 85.1332 7.39525 85.8192 7.08546C86.5051 6.77568 87.2534 6.62861 88.0055 6.65574C88.5894 6.62319 89.1734 6.71658 89.7179 6.92958C90.2625 7.14257 90.7549 7.47019 91.1617 7.89021C91.917 8.69822 92.3554 9.75171 92.3962 10.8571L92.4455 11.7253L84.4379 12.3672C84.4542 13.523 84.8601 14.6395 85.5901 15.5357C85.9569 16.0283 86.4383 16.4241 86.9926 16.6886C87.5468 16.9532 88.1572 17.0787 88.7709 17.0541C89.5997 17.1007 90.4254 16.9185 91.1576 16.5274C91.7539 16.1386 92.2434 15.6067 92.5813 14.9802H93.3056C92.9991 16.1693 92.3629 17.2477 91.4703 18.0911C90.4989 18.89 89.2609 19.2914 88.0055 19.2144V19.2391ZM87.9562 7.56925C87.4302 7.52534 86.902 7.62002 86.424 7.84383C85.9461 8.06764 85.5351 8.41278 85.2321 8.84487C84.689 9.63633 84.3796 10.5646 84.3392 11.5237L90.3675 11.0093C90.4707 10.2025 90.3789 9.38265 90.1 8.61855C89.8367 7.9053 89.1221 7.5473 87.9562 7.54456V7.56925ZM102.519 42.9575C102.712 42.9575 102.976 42.7888 103.313 42.4513C103.65 42.1139 103.819 41.8506 103.819 41.6572V35.0733C103.841 34.5595 103.679 34.0548 103.362 33.6495C103.176 33.4516 102.946 33.2987 102.692 33.2025C102.437 33.1063 102.164 33.0692 101.893 33.094C101.039 33.1224 100.218 33.427 99.552 33.9623C98.7647 34.5438 98.371 35.0267 98.371 35.4107V41.6777C98.371 41.8711 98.5397 42.1345 98.8771 42.4719C99.2146 42.8093 99.4656 42.978 99.6261 42.978H100.35V43.8957H94.1779V42.978H94.8528C95.0462 42.978 95.3095 42.8093 95.6469 42.4719C95.9844 42.1345 96.1531 41.8711 96.1531 41.6777V35.0939C96.1795 34.5603 96.0081 34.0357 95.6716 33.6207C95.4864 33.4266 95.2604 33.2761 95.0099 33.18C94.7594 33.0839 94.4907 33.0447 94.2232 33.0652C93.3471 33.094 92.5062 33.4172 91.8365 33.9828C91.0492 34.5918 90.6556 35.1062 90.6556 35.5259V41.6983C90.6556 41.8917 90.8243 42.1551 91.1617 42.4925C91.4991 42.8299 91.7666 42.9986 91.96 42.9986H92.6348V43.9162H86.4625V42.9986H87.1867C87.3472 42.9986 87.5982 42.8299 87.9315 42.4925C88.2648 42.1551 88.4376 41.8917 88.4376 41.6983V34.0158C88.4376 33.8265 88.2689 33.5672 87.9315 33.2463C87.5941 32.9253 87.3472 32.7648 87.1867 32.7648H86.4625V31.8472H90.1659L90.6473 34.1639C91.3551 33.4232 91.9984 32.8032 92.5772 32.304C93.2827 31.7646 94.1601 31.4999 95.0462 31.5592C95.8039 31.5439 96.5465 31.7718 97.1653 32.2093C97.4733 32.4317 97.7313 32.7161 97.9226 33.0443C98.114 33.3724 98.2345 33.737 98.2764 34.1145C99.0129 33.4068 99.6919 32.8101 100.301 32.3287C100.998 31.8189 101.849 31.5633 102.712 31.6044C103.586 31.583 104.433 31.9034 105.074 32.4974C105.406 32.8269 105.664 33.2234 105.831 33.6605C105.998 34.0976 106.069 34.5652 106.041 35.0321V41.616C106.041 41.8094 106.21 42.0728 106.547 42.4102C106.885 42.7476 107.132 42.9163 107.292 42.9163H108.016V43.8339H101.844V42.9163L102.519 42.9575ZM94.466 9.21521C94.2648 8.90037 94.0116 8.62207 93.717 8.39223C93.3056 8.03835 93.034 7.8614 92.8941 7.8614H92.3632V6.91498H98.873V7.8326H98.1035C97.9431 7.8326 97.7332 7.99308 97.4781 8.31404C97.2624 8.53854 97.1265 8.82771 97.0913 9.13703L99.9717 15.0666L102.626 9.18229C102.627 9.02062 102.596 8.86034 102.534 8.71112C102.471 8.5619 102.38 8.42682 102.264 8.31404C101.989 7.99308 101.771 7.8326 101.609 7.8326H100.815V6.91498H105.687V7.8326H105.156C104.996 7.8326 104.745 8.00131 104.408 8.33873C104.143 8.57942 103.923 8.865 103.757 9.18229L99.6425 17.91L96.1037 24.712L95.0544 24.177L98.7167 17.5685L94.466 9.21521ZM116.312 31.5427C116.984 31.5162 117.653 31.6563 118.258 31.9507C118.864 32.245 119.387 32.6844 119.781 33.2298C120.662 34.5355 121.096 36.0923 121.015 37.6657C121.08 39.3219 120.587 40.9519 119.616 42.295C119.216 42.8678 118.681 43.3344 118.06 43.6542C117.438 43.974 116.748 44.1374 116.049 44.1302C115.165 44.1749 114.286 43.965 113.518 43.5253C112.838 43.0655 112.283 42.445 111.901 41.7189V47.5044C111.901 47.7308 112.078 48.0023 112.432 48.3274C112.786 48.6525 113.045 48.8089 113.205 48.8089H113.983V49.6895H107.63V48.7718H108.403C108.715 48.7061 108.995 48.5364 109.197 48.2904C109.466 48.0915 109.647 47.7967 109.703 47.4674V34.0158C109.703 33.8265 109.535 33.5672 109.197 33.2463C108.995 33.0003 108.715 32.8305 108.403 32.7648H107.63V31.7978H111.535L111.921 34.3079C112.361 33.4616 112.997 32.7333 113.777 32.1846C114.538 31.716 115.419 31.4813 116.312 31.5098V31.5427ZM118.723 39.645V39.6902L118.818 38.7273C118.851 38.4074 118.867 38.086 118.867 37.7644C118.868 37.4825 118.851 37.2008 118.818 36.9209C118.785 36.6452 118.752 36.3818 118.723 36.1226C118.644 35.2786 118.307 34.4795 117.756 33.8347C117.492 33.558 117.172 33.3414 116.817 33.1994C116.462 33.0574 116.081 32.9934 115.699 33.0117C115.254 32.993 114.81 33.0667 114.395 33.2281C113.98 33.3896 113.603 33.6354 113.288 33.9499C112.659 34.6111 112.196 35.4122 111.938 36.2872V39.4228C111.933 39.8725 112.02 40.3185 112.194 40.7333C112.368 41.148 112.626 41.5226 112.95 41.8341C113.27 42.1628 113.655 42.4222 114.08 42.5964C114.504 42.7705 114.96 42.8556 115.419 42.8464H115.468C115.896 42.8791 116.326 42.8159 116.726 42.6614C117.126 42.5069 117.486 42.265 117.781 41.9534C118.321 41.2838 118.649 40.4687 118.723 39.612V39.645ZM145.968 41.6695C145.968 41.8629 146.145 42.1263 146.499 42.4637C146.853 42.8011 147.108 42.9698 147.268 42.9698H147.993V43.8874H141.676V42.9698H142.376C142.54 42.9698 142.787 42.8011 143.149 42.4637C143.512 42.1263 143.68 41.8629 143.68 41.6695V35.1268C143.697 34.5997 143.536 34.0823 143.224 33.6578C143.052 33.4502 142.833 33.2868 142.585 33.1816C142.338 33.0763 142.068 33.0322 141.8 33.0529C140.843 33.0841 139.921 33.4217 139.17 34.0158C138.284 34.6632 137.843 35.1775 137.845 35.5589V41.6366C137.845 41.8629 138.022 42.1345 138.376 42.4596C138.591 42.7056 138.88 42.8747 139.199 42.941H139.907V43.8586H129.669L129.332 41.3526C128.824 42.0192 128.26 42.6402 127.644 43.2085C127.018 43.7971 126.187 44.1175 125.328 44.1014C124.923 44.1043 124.522 44.0244 124.149 43.8666C123.776 43.7088 123.439 43.4764 123.159 43.1838C122.853 42.8737 122.614 42.5041 122.456 42.0979C122.298 41.6916 122.225 41.2573 122.242 40.8218C122.196 40.3104 122.296 39.7965 122.53 39.3398C122.765 38.883 123.124 38.5023 123.567 38.2418C124.373 37.7751 125.242 37.4259 126.147 37.2048L129.282 36.5752L129.332 35.1309C129.368 34.4029 129.127 33.6883 128.657 33.1311C128.344 32.8521 127.976 32.6414 127.577 32.5125C127.178 32.3835 126.757 32.3391 126.34 32.3821C125.935 32.3335 125.525 32.3978 125.155 32.5677C124.785 32.7376 124.468 33.0066 124.241 33.345C124.061 33.7431 123.978 34.1785 124 34.615C124.021 35.0516 124.146 35.4767 124.365 35.8551H123.497L121.851 33.4438C122.51 32.7955 123.295 32.2896 124.158 31.9576C125.021 31.6256 125.943 31.4746 126.867 31.5139C128.047 31.4735 129.211 31.803 130.196 32.4562C130.634 32.7574 130.989 33.1659 131.225 33.6427C131.461 34.1195 131.571 34.6488 131.545 35.1803V41.6407C131.545 41.8341 131.722 42.0892 132.076 42.4102C132.43 42.7311 132.685 42.8957 132.846 42.8957H134.294C134.615 42.8292 134.904 42.6585 135.117 42.4102C135.471 42.0892 135.648 41.8341 135.648 41.6407V34.0158C135.648 33.8265 135.471 33.5672 135.117 33.2463C134.903 33.0002 134.614 32.8311 134.294 32.7648H133.57V31.7978H137.38L137.862 34.3079C138.506 33.6221 139.194 32.9775 139.919 32.378C140.679 31.8024 141.617 31.5112 142.569 31.555C143.011 31.547 143.451 31.6282 143.861 31.7936C144.271 31.959 144.643 32.2054 144.956 32.5179C145.287 32.8444 145.546 33.2362 145.716 33.6684C145.887 34.1006 145.966 34.5637 145.948 35.028L145.968 41.6695ZM129.332 37.3941L126.451 38.1183C125.833 38.2189 125.269 38.5335 124.859 39.0071C124.56 39.4393 124.408 39.9553 124.422 40.4803V40.5255C124.419 40.7712 124.464 41.0151 124.555 41.2432C124.646 41.4713 124.781 41.6792 124.953 41.8547C125.12 42.0333 125.322 42.1747 125.547 42.2697C125.771 42.3648 126.014 42.4112 126.258 42.4061H126.328C126.974 42.38 127.589 42.1247 128.064 41.686C128.553 41.2945 128.971 40.8211 129.299 40.2869L129.332 37.3941ZM160 31.8472V32.7648H159.42C159.292 32.7648 159.058 32.9335 158.72 33.271C158.465 33.515 158.231 33.7807 158.021 34.0651L153.972 42.8422L150.355 49.5948L149.342 49.064L152.959 42.4554L148.717 34.1145C148.514 33.8007 148.261 33.5226 147.968 33.2915C147.557 32.9377 147.301 32.7607 147.174 32.7607H146.594V31.8472H153.103V32.7648H152.379C152.219 32.7648 152.001 32.9253 151.729 33.2463C151.503 33.4664 151.358 33.7564 151.318 34.0693L154.198 40.003L156.864 34.0528C156.865 33.898 156.833 33.7448 156.77 33.603C156.708 33.4613 156.617 33.3342 156.502 33.2298C156.231 32.9089 156.013 32.7484 155.852 32.7484H155.083V31.8472H160Z" fill="#2E2E2E"></path>
</g>
<defs>
<clipPath id="clip0_278_959">
<rect width="160" height="50" fill="white"></rect>
</clipPath>
</defs>
</svg>
