<svg xmlns="http://www.w3.org/2000/svg" fill="none" viewBox="0 0 171 61" height="61" width="171">
<mask height="56" width="81" y="3" x="45" maskUnits="userSpaceOnUse" style="mask-type:luminance" id="mask0_50_305">
<path fill="white" d="M45.9263 3.02017H125.114V58.0202H45.9263V3.02017Z"></path>
</mask>
<g mask="url(#mask0_50_305)">
<path fill="#2E2E2E" d="M78.807 9.04174C81.3631 6.39595 84.9207 4.75753 88.851 4.75753C94.0913 4.75753 98.6329 7.65226 101.078 11.9654C103.249 11.0005 105.6 10.5024 107.978 10.5036C117.411 10.5036 125.068 18.1746 125.068 27.6404C125.068 37.1062 117.411 44.7773 107.978 44.7773C106.825 44.7773 105.702 44.662 104.601 44.4444C102.461 48.2365 98.3709 50.8128 93.7128 50.8128C91.8164 50.8165 89.9442 50.3888 88.2396 49.5623C86.0707 54.628 81.0196 58.1886 75.1387 58.1886C68.9959 58.1886 63.7846 54.3386 61.7758 48.9254C60.8818 49.113 59.9704 49.2073 59.0567 49.2068C51.7493 49.2068 45.8394 43.2436 45.8394 35.9199C45.8394 30.9989 48.5003 26.7147 52.448 24.3989C51.6105 22.4806 51.1794 20.4112 51.1816 18.3199C51.1816 9.86731 58.0814 3.03574 66.5824 3.03574C71.5607 3.03574 76.015 5.39495 78.8099 9.05679" clip-rule="evenodd" fill-rule="evenodd"></path>
</g>
<path fill="white" d="M57.3815 31.6207C57.3317 31.7498 57.3993 31.7767 57.4153 31.7996C57.5641 31.9067 57.7152 31.9843 57.8666 32.0714C58.6759 32.4969 59.4387 32.6214 60.2364 32.6214C61.8609 32.6214 62.8711 31.7617 62.8711 30.378V30.3508C62.8711 29.0713 61.7299 28.6052 60.6643 28.2724L60.5249 28.2275C59.7184 27.9675 59.0226 27.7412 59.0226 27.2143V27.1874C59.0226 26.7358 59.4302 26.4029 60.0591 26.4029C60.7578 26.4029 61.5904 26.6342 62.1232 26.9269C62.1232 26.9269 62.281 27.0282 62.3383 26.8768C62.3695 26.7949 62.6411 26.0721 62.6702 25.991C62.7011 25.9062 62.6469 25.8422 62.5913 25.8092C61.9799 25.4387 61.1357 25.1869 60.2623 25.1869L60.1001 25.1874C58.6124 25.1874 57.5731 26.0819 57.5731 27.3614V27.3889C57.5731 28.7378 58.7201 29.1778 59.7915 29.4818L59.9639 29.535C60.7441 29.7736 61.4195 29.9808 61.4195 30.525V30.5522C61.4195 31.053 60.9799 31.4265 60.2754 31.4265C60.0014 31.4265 59.1283 31.4218 58.1821 30.8272C58.0677 30.761 58.0025 30.7132 57.9143 30.6596C57.8677 30.6316 57.7513 30.5809 57.7006 30.7326L57.3804 31.6184M81.1657 31.6184C81.1159 31.7475 81.1835 31.7744 81.2001 31.7973C81.3483 31.9044 81.4999 31.982 81.6513 32.0691C82.4607 32.4946 83.2234 32.6191 84.0211 32.6191C85.6456 32.6191 86.6559 31.7594 86.6559 30.3757V30.3485C86.6559 29.069 85.5175 28.6029 84.4491 28.27L84.3096 28.2252C83.5032 27.9652 82.8074 27.7389 82.8074 27.212V27.1851C82.8074 26.7335 83.215 26.4006 83.8438 26.4006C84.5425 26.4006 85.3723 26.6319 85.9079 26.9246C85.9079 26.9246 86.0657 27.0259 86.1234 26.8745C86.1542 26.7926 86.4262 26.0698 86.4524 25.9887C86.4835 25.9039 86.4291 25.8399 86.3738 25.8069C85.7624 25.4364 84.9181 25.1845 84.0447 25.1845L83.8823 25.1851C82.3946 25.1851 81.3552 26.0796 81.3552 27.3591V27.3866C81.3552 28.7355 82.5023 29.1755 83.5737 29.4795L83.7457 29.5327C84.5289 29.7712 85.2014 29.9785 85.2014 30.5227V30.5499C85.2014 31.0507 84.7618 31.4241 84.0572 31.4241C83.7827 31.4241 82.9073 31.4195 81.964 30.8249C81.8496 30.7586 81.7826 30.7129 81.6959 30.6573C81.6665 30.6388 81.5293 30.5855 81.4825 30.7303L81.1622 31.6161M97.4073 28.9066C97.4073 29.6882 97.2606 30.3047 96.9735 30.7419C96.6871 31.1732 96.2544 31.3845 95.6518 31.3845C95.0492 31.3845 94.6183 31.1749 94.3359 30.7447C94.0514 30.3105 93.9079 29.6911 93.9079 28.9095C93.9079 28.1279 94.0523 27.5142 94.3359 27.0829C94.6177 26.6545 95.0462 26.449 95.6518 26.449C96.2573 26.449 96.6882 26.6565 96.9735 27.0829C97.2623 27.5142 97.4073 28.1279 97.4073 28.9095M98.764 27.4592C98.6304 27.0105 98.4234 26.6169 98.1468 26.2869C97.8699 25.9569 97.5209 25.6905 97.1045 25.4995C96.6911 25.307 96.202 25.21 95.6489 25.21C95.0957 25.21 94.6095 25.3076 94.1932 25.4995C93.7798 25.6917 93.4276 25.9569 93.151 26.2869C92.875 26.6169 92.6677 27.0105 92.5338 27.4592C92.4013 27.905 92.3341 28.3913 92.3341 28.9095C92.3341 29.4276 92.4013 29.914 92.5338 30.3597C92.6668 30.8084 92.8744 31.2021 93.151 31.5321C93.4278 31.8621 93.7798 32.1255 94.1932 32.3137C94.6095 32.5013 95.0986 32.5968 95.6489 32.5968C96.1991 32.5968 96.6882 32.5013 97.1016 32.3137C97.515 32.1261 97.8673 31.8621 98.1439 31.5321C98.4202 31.2021 98.6271 30.8084 98.7611 30.3597C98.8932 29.914 98.9605 29.4276 98.9605 28.9095C98.9605 28.3942 98.8932 27.905 98.7611 27.4592M109.911 31.1645C109.867 31.0334 109.738 31.0829 109.738 31.0829C109.541 31.1578 109.331 31.2273 109.106 31.262C108.88 31.2974 108.629 31.315 108.364 31.315C107.709 31.315 107.185 31.1208 106.812 30.7361C106.437 30.3511 106.227 29.7316 106.23 28.8921C106.232 28.1279 106.418 27.5547 106.751 27.1147C107.08 26.6805 107.587 26.4548 108.256 26.4548C108.815 26.4548 109.243 26.5193 109.692 26.6588C109.692 26.6588 109.798 26.7049 109.849 26.5656C109.968 26.2385 110.056 26.004 110.184 25.6451C110.22 25.5423 110.131 25.4989 110.099 25.4865C109.923 25.4181 109.508 25.3061 109.193 25.2589C108.899 25.2144 108.559 25.1912 108.174 25.1912C107.604 25.1912 107.097 25.2882 106.664 25.4804C106.23 25.6723 105.863 25.9377 105.572 26.2677C105.281 26.5977 105.059 26.9914 104.911 27.4401C104.764 27.8859 104.69 28.3751 104.69 28.8933C104.69 30.0106 104.992 30.9167 105.592 31.5796C106.192 32.2454 107.094 32.5812 108.271 32.5812C108.966 32.5812 109.68 32.4414 110.192 32.2396C110.192 32.2396 110.29 32.1927 110.247 32.0792L109.913 31.1645M112.285 28.154C112.35 27.7197 112.47 27.3579 112.658 27.0771C112.939 26.6487 113.368 26.4142 113.971 26.4142C114.574 26.4142 114.972 26.6499 115.258 27.0771C115.447 27.3594 115.53 27.7342 115.56 28.154L112.271 28.1534L112.285 28.154ZM116.856 27.1987C116.74 26.7674 116.454 26.3303 116.268 26.1305C115.971 25.815 115.683 25.5921 115.395 25.4705C114.978 25.2946 114.531 25.2043 114.079 25.2051C113.505 25.2051 112.984 25.3015 112.562 25.4975C112.14 25.6949 111.784 25.9635 111.505 26.2993C111.226 26.6351 111.016 27.0317 110.882 27.4861C110.748 27.9348 110.681 28.4269 110.681 28.9422C110.681 29.469 110.751 29.9582 110.889 30.4011C111.028 30.8469 111.253 31.2377 111.555 31.5619C111.858 31.889 112.245 32.1438 112.711 32.3232C113.174 32.5013 113.736 32.5936 114.379 32.5916C115.707 32.5872 116.406 32.2934 116.691 32.1342C116.742 32.1059 116.79 32.0569 116.73 31.916L116.43 31.0794C116.384 30.9546 116.257 30.9998 116.257 30.9998C115.928 31.1219 115.462 31.3414 114.371 31.3385C113.657 31.3373 113.13 31.128 112.799 30.8C112.461 30.4642 112.292 29.975 112.266 29.2803L116.866 29.2838C116.866 29.2838 116.987 29.2826 116.999 29.1651C117.004 29.1165 117.157 28.2272 116.862 27.1996L116.856 27.1987ZM75.5155 28.154C75.5804 27.7197 75.7003 27.3579 75.8881 27.0771C76.1699 26.6487 76.5985 26.4142 77.2011 26.4142C77.8037 26.4142 78.2026 26.6499 78.4879 27.0771C78.6768 27.3594 78.7595 27.7342 78.7907 28.154L75.5009 28.1534L75.5155 28.154ZM80.0862 27.1987C79.9709 26.7674 79.6845 26.3303 79.4981 26.1305C79.2012 25.815 78.913 25.5921 78.6247 25.4705C78.2086 25.2946 77.761 25.2043 77.3088 25.2051C76.7353 25.2051 76.2142 25.3015 75.792 25.4975C75.3699 25.6949 75.0147 25.9635 74.7352 26.2993C74.4566 26.6351 74.2461 27.0317 74.1122 27.4861C73.9786 27.9348 73.9113 28.4269 73.9113 28.9422C73.9113 29.469 73.9809 29.9582 74.1198 30.4011C74.2589 30.8469 74.4837 31.2377 74.7836 31.5619C75.0863 31.889 75.4735 32.1438 75.9394 32.3232C76.4022 32.5013 76.9612 32.5936 77.6075 32.5916C78.9351 32.5872 79.6338 32.2934 79.9191 32.1342C79.9698 32.1059 80.0181 32.0569 79.9578 31.916L79.658 31.0794C79.6117 30.9546 79.4847 30.9998 79.4847 30.9998C79.1558 31.1219 78.69 31.3414 77.5982 31.3385C76.8879 31.3373 76.358 31.128 76.0261 30.8C75.6884 30.4642 75.5195 29.975 75.4933 29.2803L80.0932 29.2838C80.0932 29.2838 80.2143 29.2826 80.2268 29.1651C80.2318 29.1165 80.3843 28.2272 80.0894 27.1996L80.0862 27.1987ZM65.5879 31.1355C65.4077 30.9925 65.3827 30.9575 65.323 30.8646C65.2319 30.7248 65.1853 30.5259 65.1853 30.2712C65.1853 29.8717 65.3192 29.5822 65.5958 29.3883C65.5929 29.3889 65.9917 29.0467 66.9292 29.0583C67.3464 29.0657 67.7627 29.101 68.1752 29.1639V31.2395H68.1758C68.1758 31.2395 67.5935 31.3642 66.9356 31.4036C66.001 31.4595 65.5876 31.1361 65.5905 31.137L65.5879 31.1355ZM67.4162 27.9224C67.2299 27.9088 66.9883 27.9021 66.7 27.9021C66.307 27.9021 65.9256 27.9508 65.5704 28.0463C65.2124 28.1424 64.8892 28.2912 64.6126 28.4892C64.3353 28.6859 64.1072 28.9434 63.9459 29.2418C63.7832 29.5429 63.7002 29.896 63.7002 30.2955C63.7002 30.7007 63.771 31.051 63.9107 31.3376C64.0476 31.6218 64.2538 31.8676 64.5104 32.0526C64.7658 32.2373 65.0811 32.3739 65.445 32.455C65.806 32.5369 66.2136 32.5783 66.6619 32.5783C67.1335 32.5783 67.6022 32.5389 68.0564 32.4628C68.4432 32.3964 68.8286 32.3219 69.2122 32.2393C69.3653 32.2043 69.5354 32.1582 69.5354 32.1582C69.6489 32.1296 69.6402 32.0089 69.6402 32.0089L69.6375 27.8405C69.6375 26.9257 69.3918 26.2455 68.9068 25.8257C68.4235 25.406 67.7161 25.1947 66.799 25.1947C66.4555 25.1947 65.8994 25.241 65.5675 25.3073C65.5675 25.3073 64.566 25.5006 64.1526 25.8225C64.1526 25.8225 64.0618 25.8781 64.1113 26.004L64.4374 26.8725C64.4778 26.9851 64.5882 26.9466 64.5882 26.9466C64.5882 26.9466 64.6228 26.933 64.6636 26.9089C65.5457 26.4313 66.6636 26.4458 66.6636 26.4458C67.1586 26.4458 67.5429 26.5456 67.7991 26.741C68.0497 26.9324 68.1775 27.2216 68.1775 27.8295V28.0225C67.7845 27.9658 67.4206 27.9331 67.4206 27.9331L67.4162 27.9224ZM104.39 25.569C104.396 25.5537 104.4 25.5373 104.4 25.5206C104.4 25.504 104.397 25.4875 104.39 25.4722C104.384 25.4569 104.374 25.443 104.362 25.4313C104.351 25.4197 104.336 25.4106 104.321 25.4045C104.242 25.375 103.852 25.2931 103.552 25.2746C102.976 25.2387 102.656 25.3354 102.367 25.4639C102.083 25.5915 101.768 25.7968 101.593 26.0341L101.592 25.4784C101.592 25.4019 101.538 25.3403 101.46 25.3403H100.284C100.208 25.3403 100.153 25.4019 100.153 25.4784V32.281C100.153 32.3177 100.167 32.353 100.194 32.3789C100.22 32.4049 100.255 32.4196 100.292 32.4196H101.497C101.534 32.4196 101.57 32.4049 101.596 32.3789C101.622 32.3529 101.637 32.3177 101.637 32.281V28.8652C101.637 28.4078 101.687 27.9534 101.788 27.6668C101.888 27.3834 102.023 27.1573 102.19 26.9952C102.349 26.8386 102.544 26.7225 102.758 26.6565C102.958 26.5992 103.166 26.5702 103.375 26.5702C103.615 26.5702 103.879 26.6316 103.879 26.6316C103.967 26.6415 104.016 26.5876 104.046 26.5083C104.125 26.2996 104.349 25.6746 104.393 25.5501" clip-rule="evenodd" fill-rule="evenodd"></path>
<path fill="white" d="M93.1322 22.4293C92.9832 22.3845 92.8316 22.3488 92.6783 22.3222C92.4721 22.288 92.2632 22.2719 92.0541 22.2741C91.2235 22.2741 90.5688 22.5075 90.1091 22.9683C89.6526 23.4257 89.342 24.1224 89.1862 25.0392L89.13 25.3486H88.0875C88.0875 25.3486 87.9603 25.3434 87.9335 25.4815L87.7623 26.431C87.7503 26.5219 87.7897 26.5786 87.9119 26.578H88.9268L87.8971 32.2931C87.8164 32.7534 87.7241 33.132 87.622 33.4189C87.5212 33.702 87.4228 33.9142 87.3017 34.0682C87.1844 34.2172 87.0732 34.3269 86.8813 34.3909C86.7229 34.4439 86.5407 34.4682 86.341 34.4682C86.2298 34.4682 86.0819 34.4497 85.9727 34.428C85.8635 34.4066 85.8068 34.3822 85.725 34.3481C85.725 34.3481 85.6059 34.3029 85.559 34.4216C85.5209 34.5186 85.2504 35.2582 85.2184 35.3497C85.1858 35.44 85.2315 35.5112 85.2891 35.5317C85.4242 35.5798 85.5247 35.6105 85.7087 35.6536C85.9643 35.7135 86.1797 35.7173 86.3815 35.7173C86.8042 35.7173 87.1893 35.6582 87.5087 35.5436C87.8301 35.4281 88.1099 35.2269 88.3574 34.9545C88.6249 34.6607 88.7932 34.353 88.9542 33.9333C89.1134 33.5173 89.2491 33.0009 89.3577 32.3991L90.3924 26.578H91.9051C91.9051 26.578 92.0326 26.5827 92.0591 26.4452L92.2303 25.4957C92.2422 25.4048 92.2032 25.3481 92.0803 25.3486H90.6122C90.6194 25.3156 90.6861 24.8021 90.8547 24.3187C90.9266 24.1123 91.062 23.9458 91.1767 23.8315C91.2838 23.7226 91.4157 23.641 91.5612 23.5936C91.7208 23.5445 91.8871 23.5207 92.0541 23.5229C92.1924 23.5229 92.3281 23.5394 92.4314 23.5608C92.5738 23.5909 92.6291 23.6069 92.6664 23.6179C92.816 23.6633 92.8361 23.6193 92.8655 23.5472L93.2166 22.5885C93.2527 22.4854 93.1648 22.442 93.1322 22.4293ZM72.6151 32.3053C72.6151 32.3817 72.5603 32.4439 72.4835 32.4439H71.2657C71.1885 32.4439 71.1338 32.3817 71.1338 32.3053V22.5593C71.1338 22.4831 71.1885 22.4215 71.2657 22.4215H72.4835C72.5603 22.4215 72.6151 22.4831 72.6151 22.5593V32.3053Z" clip-rule="evenodd" fill-rule="evenodd"></path>
</svg>
