<svg xmlns="http://www.w3.org/2000/svg" fill="none" viewBox="0 0 170 60" height="60" width="170">
<path fill="#2E2E2E" d="M124.725 10.2764L85.2778 49.7236H45.2749V10.2764H124.725ZM56.0405 16.8389C52.7417 16.8389 49.9633 17.88 48.2271 19.6162C47.0117 20.8316 46.4905 22.3946 46.3169 24.1309C46.3169 26.5615 47.1854 28.2976 49.0952 29.6865C50.6578 30.7283 52.5679 31.4225 54.3042 31.9434C56.5611 32.6378 58.2971 33.3327 58.2974 34.5479C58.1238 36.1103 56.3877 36.4579 55.1724 36.458C53.0889 36.6316 51.3519 36.2843 48.7476 34.7217L46.3169 39.4092C48.9213 40.9718 51.6997 41.667 54.9985 41.667C57.2557 41.667 60.7283 40.9725 62.6382 39.2363L62.2905 40.7988H68.8882L70.104 37.8467C72.7084 38.5412 75.6598 38.7148 78.2642 37.8467L79.1323 40.7988H90.939V33.8535H93.3696C99.4464 33.8535 103.092 30.902 103.092 25.6934C103.092 19.7901 99.6197 17.3594 92.1538 17.3594H84.3413V35.7637L77.5698 17.3594H70.7983L65.0688 32.6387C64.3743 28.8189 60.3806 27.4294 57.2554 26.3877C55.1719 25.6932 52.9146 24.8247 52.9146 23.6094C52.9149 22.7414 54.1306 21.8734 56.3872 22.0469C57.9498 22.2205 59.339 22.2206 62.1167 23.6094L64.895 18.9219C62.2908 17.5329 58.8185 16.8389 56.0405 16.8389ZM76.7017 32.6387C74.9655 33.1595 73.2291 33.1595 71.6665 32.6387L74.0972 24.8252H74.271L76.7017 32.6387ZM92.6753 22.3945C94.9322 22.3946 96.6683 23.0889 96.6685 25.3457C96.6685 27.7764 94.9323 28.6445 92.6753 28.6445H90.939V22.3945H92.6753Z"></path>
</svg>
