<svg xmlns="http://www.w3.org/2000/svg" fill="none" viewBox="0 0 100 100" height="100" width="100">
<g clip-path="url(#clip0_278_10318)">
<line stroke="black" transform="matrix(-4.37114e-08 -1 -1 4.37114e-08 99 100)" y2="-0.5" x2="100" y1="-0.5"></line>
<line stroke="black" transform="matrix(-4.37114e-08 -1 -1 4.37114e-08 75 100)" y2="-0.5" x2="100" y1="-0.5"></line>
<line stroke="black" transform="matrix(-4.37114e-08 -1 -1 4.37114e-08 57 100)" y2="-0.5" x2="100" y1="-0.5"></line>
<line stroke="black" transform="matrix(-4.37114e-08 -1 -1 4.37114e-08 45 100)" y2="-0.5" x2="100" y1="-0.5"></line>
<line stroke="black" transform="matrix(-4.37114e-08 -1 -1 4.37114e-08 35 100)" y2="-0.5" x2="100" y1="-0.5"></line>
<line stroke="black" transform="matrix(-4.37114e-08 -1 -1 4.37114e-08 26 100)" y2="-0.5" x2="100" y1="-0.5"></line>
<line stroke="black" transform="matrix(-4.37114e-08 -1 -1 4.37114e-08 18 100)" y2="-0.5" x2="100" y1="-0.5"></line>
<line stroke="black" transform="matrix(-4.37114e-08 -1 -1 4.37114e-08 11 100)" y2="-0.5" x2="100" y1="-0.5"></line>
<line stroke="black" transform="matrix(-4.37114e-08 -1 -1 4.37114e-08 5 100)" y2="-0.5" x2="100" y1="-0.5"></line>
<line stroke="black" transform="matrix(-4.37114e-08 -1 -1 4.37114e-08 0 100)" y2="-0.5" x2="100" y1="-0.5"></line>
<line stroke="black" y2="0.500009" x2="100" y1="0.5" x1="4.37114e-08"></line>
<line stroke="black" y2="24.5" x2="100" y1="24.5" x1="4.37114e-08"></line>
<line stroke="black" y2="42.5" x2="100" y1="42.5" x1="4.37114e-08"></line>
<line stroke="black" y2="54.5" x2="100" y1="54.5" x1="4.37114e-08"></line>
<line stroke="black" y2="64.5" x2="100" y1="64.5" x1="4.37114e-08"></line>
<line stroke="black" y2="73.5" x2="100" y1="73.5" x1="4.37114e-08"></line>
<line stroke="black" y2="81.5" x2="100" y1="81.5" x1="4.37114e-08"></line>
<line stroke="black" y2="88.5" x2="100" y1="88.5" x1="4.37114e-08"></line>
<line stroke="black" y2="94.5" x2="100" y1="94.5" x1="4.37114e-08"></line>
<line stroke="black" y2="99.5" x2="100" y1="99.5" x1="4.37114e-08"></line>
</g>
<defs>
<clipPath id="clip0_278_10318">
<rect fill="white" height="100" width="100"></rect>
</clipPath>
</defs>
</svg>
