<svg xmlns="http://www.w3.org/2000/svg" fill="none" viewBox="0 0 160 33" height="33" width="160">
<path fill="white" d="M114.04 8.14273C113.834 8.12763 113.604 8.11924 113.35 8.11924C111.726 8.11924 110.283 8.45656 109.017 9.13121C107.754 9.80585 106.715 10.8682 105.903 12.3181C105.819 12.4793 105.73 12.5783 105.637 12.6169C105.545 12.6555 105.465 12.6404 105.396 12.5716C105.334 12.4944 105.3 12.3719 105.292 12.204L105.166 9.59104C105.157 9.26043 105.062 9.01205 104.879 8.84255C104.694 8.66634 104.439 8.57739 104.109 8.57739H96.4894C96.053 8.57739 95.7191 8.69319 95.4892 8.92311C95.2592 9.15302 95.1451 9.48699 95.1451 9.925V10.9487C95.1451 11.3867 95.2592 11.7241 95.4892 11.9607C95.7191 12.1906 96.053 12.3064 96.4894 12.3064H100.937V27.6353C100.937 27.8115 100.886 27.9458 100.787 28.0381C100.695 28.1304 100.561 28.1757 100.385 28.1757H96.2125C95.7761 28.1757 95.4422 28.2915 95.2122 28.5214C94.9823 28.7513 94.8682 29.0886 94.8682 29.5333V30.5571C94.8682 30.9951 94.9823 31.3274 95.2122 31.559C95.4422 31.7889 95.7744 31.9047 96.2125 31.9047H110.682C111.118 31.9047 111.452 31.7889 111.682 31.559C111.921 31.329 112.038 30.9951 112.038 30.5571V29.5333C112.038 29.0886 111.919 28.7513 111.682 28.5214C111.452 28.2915 111.118 28.1757 110.682 28.1757H105.97C105.793 28.1757 105.656 28.1304 105.555 28.0381C105.463 27.9458 105.418 27.8115 105.418 27.6353V19.8332C105.418 18.583 105.594 17.4938 105.946 16.5657C106.299 15.6293 106.804 14.8623 107.463 14.2649C108.114 13.6742 108.896 13.2361 109.808 12.9525C110.727 12.6605 111.749 12.5145 112.876 12.5145C113.327 12.5145 113.748 12.5296 114.139 12.5598C114.507 12.5984 114.794 12.5061 115.002 12.2829C115.208 12.0597 115.312 11.7224 115.312 11.2709V9.59104C115.312 9.16141 115.205 8.82073 114.99 8.56732C114.775 8.3072 114.458 8.16455 114.037 8.14105L114.04 8.14273ZM134.14 28.179H128.669C128.126 28.179 127.743 28.0532 127.52 27.7997C127.298 27.5396 127.186 27.11 127.186 26.5109V12.8501C127.186 12.6806 127.231 12.5514 127.323 12.4591C127.422 12.3601 127.557 12.3098 127.726 12.3098H133.679C134.115 12.3098 134.449 12.194 134.679 11.964C134.909 11.7257 135.023 11.3884 135.023 10.9521V9.92836C135.023 9.49035 134.909 9.15806 134.679 8.92646C134.449 8.69655 134.117 8.58075 133.679 8.58075H127.726C127.558 8.58075 127.424 8.53544 127.323 8.44313C127.231 8.34412 127.186 8.20483 127.186 8.02861V3.33295C127.186 2.89493 127.067 2.56264 126.83 2.33105C126.6 2.10113 126.266 1.98534 125.83 1.98534H124.047C123.603 1.98534 123.265 2.10113 123.037 2.33105C122.807 2.56097 122.693 2.89493 122.693 3.33295V8.02861C122.693 8.20483 122.643 8.34244 122.544 8.44313C122.451 8.53544 122.322 8.58075 122.153 8.58075H118.957C118.521 8.58075 118.187 8.69655 117.957 8.92646C117.727 9.15638 117.613 9.49035 117.613 9.92836V10.9521C117.613 11.3901 117.727 11.7274 117.957 11.964C118.187 12.194 118.519 12.3098 118.957 12.3098H122.153C122.321 12.3098 122.451 12.3601 122.544 12.4591C122.643 12.5514 122.693 12.6823 122.693 12.8501V27.1436C122.693 28.763 123.079 29.963 123.854 30.745C124.637 31.5204 125.778 31.908 127.28 31.908H134.095C134.531 31.908 134.865 31.7922 135.095 31.5623C135.325 31.3324 135.439 30.9984 135.439 30.5604V29.5367C135.439 29.0987 135.325 28.7664 135.095 28.5348C134.874 28.2965 134.555 28.1773 134.142 28.1773L134.14 28.179ZM158.97 12.4826C158.28 11.0326 157.296 9.94347 156.016 9.21512C154.744 8.48677 153.238 8.12259 151.5 8.12259C149.983 8.12259 148.615 8.40957 147.397 8.9852C146.187 9.56083 145.148 10.4352 144.282 11.6083C144.183 11.7543 144.087 11.8415 143.995 11.8734C143.903 11.8969 143.827 11.8701 143.765 11.7929C143.703 11.7157 143.673 11.5965 143.673 11.4354V1.34761C143.673 0.909596 143.558 0.577308 143.329 0.345714C143.099 0.115797 142.761 0 142.317 0H140.536C140.1 0 139.762 0.115797 139.524 0.345714C139.294 0.57563 139.18 0.909596 139.18 1.34761V30.5604C139.18 30.9984 139.294 31.3307 139.524 31.5623C139.762 31.7922 140.098 31.908 140.536 31.908H142.317C142.761 31.908 143.099 31.7922 143.329 31.5623C143.558 31.3324 143.673 30.9984 143.673 30.5604V19.3969C143.673 17.8395 143.936 16.5087 144.465 15.4044C145.002 14.2917 145.749 13.4526 146.705 12.8837C147.67 12.3081 148.778 12.0211 150.026 12.0211C151.152 12.0211 152.126 12.2594 152.945 12.7343C153.764 13.2026 154.396 13.9074 154.841 14.8523C155.293 15.7954 155.519 16.9584 155.519 18.3396V30.5604C155.519 30.9984 155.633 31.3307 155.863 31.5623C156.093 31.7922 156.425 31.908 156.863 31.908H158.656C159.092 31.908 159.426 31.7922 159.656 31.5623C159.886 31.3324 160 30.9984 160 30.5604V17.8093C160 15.6998 159.656 13.9242 158.966 12.4809L158.97 12.4826ZM55.8546 8.10917C54.3123 8.10917 52.9244 8.40454 51.6926 8.99527C50.4608 9.586 49.4186 10.4922 48.5661 11.7123C48.4587 11.8499 48.3563 11.9372 48.2606 11.9708C48.165 12.006 48.0827 11.9859 48.0139 11.9137C47.9451 11.8415 47.9065 11.719 47.8981 11.5512L47.8058 9.81256C47.7907 9.40643 47.6632 9.09764 47.4266 8.88618C47.1882 8.67473 46.8576 8.569 46.4364 8.569H44.8706C44.4326 8.569 44.0986 8.6848 43.8687 8.91471C43.6388 9.14463 43.523 9.4786 43.523 9.91661V30.5604C43.523 30.9984 43.6388 31.3324 43.8687 31.5623C44.0986 31.7922 44.4326 31.908 44.8706 31.908H46.6663C47.1043 31.908 47.4383 31.7922 47.6682 31.5623C47.8981 31.3324 48.0139 30.9984 48.0139 30.5604V19.3919C48.0139 17.8345 48.2808 16.5003 48.8144 15.391C49.3481 14.2817 50.0966 13.4409 51.0599 12.8703C52.0232 12.298 53.1308 12.0127 54.3811 12.0127C55.0339 12.0127 55.6314 12.1017 56.1768 12.2779C57.6318 12.7495 58.6908 13.8118 59.3084 15.2198C59.7078 16.1311 59.884 17.2437 59.884 18.541V30.5604C59.884 30.9984 59.9998 31.3324 60.2297 31.5623C60.4596 31.7922 60.7936 31.908 61.2316 31.908H63.0273C63.4653 31.908 63.801 31.7922 64.0342 31.5623C64.2675 31.3324 64.385 30.9984 64.385 30.5604V17.8026C64.385 16.4986 64.2423 15.3138 63.9587 14.2515C63.6751 13.1891 63.2606 12.2661 62.7152 11.4824C61.7032 10.0291 60.223 9.01876 58.5297 8.47166C57.7157 8.20986 56.8128 8.10917 55.8529 8.10917H55.8546ZM80.5093 32.388C87.4169 32.388 92.3458 27.2778 92.3458 20.2746C92.3458 13.2714 87.4169 8.16119 80.5093 8.16119C73.6018 8.16119 68.6728 13.367 68.6728 20.2746C68.6728 21.8857 68.9498 23.6831 69.7771 25.6617C70.1933 26.63 70.9754 26.766 71.8044 26.1685L73.1403 25.2002C73.8317 24.6934 74.0146 24.0959 73.783 23.2216C73.4155 22.072 73.3215 21.0583 73.3215 20.184C73.3215 15.349 76.2232 12.0312 80.506 12.0312C84.7888 12.0312 87.6905 15.3004 87.6905 20.2746C87.6905 25.2489 84.8341 28.518 80.5983 28.518C79.1231 28.518 77.742 28.2411 76.0855 26.9976C75.3941 26.4454 74.7497 26.3548 74.0129 26.9069L72.9993 27.6437C72.1703 28.2411 72.0796 29.0702 72.86 29.7163C75.2548 31.6496 78.0172 32.3863 80.506 32.3863H80.5127L80.5093 32.388Z"></path>
<path fill="white" d="M0 9.59272C0 4.29625 4.29625 0 9.59272 0H25.0458C28.7345 0 31.7251 2.99059 31.7251 6.67932C31.7251 9.33763 30.5034 11.3112 27.7142 12.8015C23.7267 14.9362 18.1986 17.0105 15.4195 18.155C13.0364 19.1384 11.3112 19.1854 10.4419 19.1854C4.02102 19.1854 0 14.8892 0 9.59272ZM19.4741 32.2185H24.7437C28.8721 32.2185 32.2219 28.8755 32.2219 24.7437C32.2219 19.4137 26.8046 15.7954 21.8807 17.8395L17.0138 19.8601C14.614 20.8569 13.0532 23.1964 13.0532 25.7943C13.0532 29.342 15.9297 32.2185 19.4774 32.2185H19.4741ZM5.53142 20.4475C2.47706 20.4475 0.00335644 22.9245 0.00335644 25.9789V26.6938C0.00335644 29.7482 2.48041 32.2219 5.53142 32.2219C8.58578 32.2219 11.0595 29.7448 11.0595 26.6938V25.9789C11.0595 22.9245 8.58243 20.4475 5.53142 20.4475Z" clip-rule="evenodd" fill-rule="evenodd"></path>
</svg>
