<svg xmlns="http://www.w3.org/2000/svg" fill="none" viewBox="0 0 170 60" height="60" width="170">
<path fill="#2E2E2E" d="M40.4889 34.2833H45.5525C46.5123 34.2833 47.4089 34.9844 47.4576 35.9134H47.5037V32.0956H40.4889L40.4855 25.3942H47.2535C48.2175 25.3942 49.115 26.0927 49.1654 27.0192H49.2098L49.2029 23.1988L35 23.2048V23.2466C35.9564 23.2987 36.6736 24.3115 36.6736 25.2576V42.8129C36.6736 43.7557 35.9564 44.7726 35 44.8264V44.8674H42.1659V44.8264C41.2087 44.7726 40.4855 43.7557 40.4855 42.8129L40.4889 34.2833Z"></path>
<path fill="#2E2E2E" d="M55.152 39.0418C55.152 41.2944 57.0305 43.2421 59.3489 43.2421C61.6647 43.2421 63.5501 41.2688 63.5501 39.0153V25.2572C63.5501 24.3111 62.8302 23.2984 61.8713 23.2463V23.2053L69.0424 23.1985V23.2463C68.0852 23.2984 67.3602 24.3111 67.3602 25.2572V38.6259C67.3602 42.9287 63.7926 45.4358 59.3677 45.4358C54.9351 45.4358 51.329 42.9287 51.329 38.6259L51.3384 25.2572C51.3384 24.3111 50.6152 23.2984 49.6631 23.2463V23.1985H56.8239V23.2463C55.8692 23.3035 55.1485 24.3171 55.1485 25.2572L55.152 39.0418Z"></path>
<path fill="#2E2E2E" d="M113.745 26.7073C112.543 24.7715 109.801 25.0046 109.801 25.0046C105.317 25.0046 105.528 28.4159 105.528 28.4159C105.528 28.4159 105.22 30.1272 107.474 31.2944L111.957 33.67C116.286 35.9858 115.773 39.2767 115.773 39.2767C115.773 39.2767 115.968 45.4248 106.916 45.4248C106.916 45.4248 104.286 45.5051 102.797 44.9483L101.523 40.9666H101.567C102.946 42.9494 106.953 43.2354 106.953 43.2354C112.039 43.0125 112.074 39.5662 112.074 39.5662C112.074 39.5662 112.303 38.0821 110.312 37.007L105.849 34.6323C101.191 32.1501 101.724 28.807 101.724 28.807C101.724 28.807 101.614 22.7588 109.623 22.7588C109.623 22.7588 113.218 22.8511 113.791 23.4104V26.7073H113.745Z"></path>
<path fill="#2E2E2E" d="M78.8034 15.6653C79.5975 16.4423 80.7059 16.9197 81.9158 16.9197C84.3537 16.9197 86.3271 15.0018 86.3271 12.6314C86.3271 10.2678 84.3537 8.3465 81.9158 8.3465C81.9158 8.3465 78.5199 8.03312 76.9914 12.2582L76.9965 9.08684C78.1339 7.63947 79.8946 6.58747 81.9158 6.58747C85.3554 6.58747 88.1382 9.29092 88.1382 12.6314C88.1382 15.9667 85.3554 18.6804 81.9158 18.6804C80.1978 18.6804 78.6437 18.0067 77.5208 16.9077L75.3809 14.5689C74.7943 13.9993 73.9874 13.6526 73.1027 13.6526C71.3206 13.6526 69.8758 15.053 69.8758 16.7831C69.8758 18.5199 71.3206 19.9237 73.1027 19.9237C73.1027 19.9237 75.486 20.2345 76.9914 17.3629L76.9965 19.9024C76.0743 20.9902 74.6662 21.6844 73.1027 21.6844C70.3207 21.6844 68.0613 19.4899 68.0613 16.7831C68.0613 14.0813 70.3207 11.8919 73.1027 11.8919C74.4886 11.8919 75.7472 12.4333 76.6609 13.3265L78.8034 15.6653Z"></path>
<path fill="#2E2E2E" d="M79.9501 25.2118C79.9501 24.2649 79.2294 23.2948 78.2739 23.2461V23.2052H85.4288V23.2461C84.4792 23.2991 83.7551 24.27 83.7551 25.2118V42.8048C83.7551 43.7492 84.4792 44.7653 85.4288 44.8217V44.8618H78.2739V44.8217C79.2294 44.7653 79.9501 43.7492 79.9501 42.8048V25.2118Z"></path>
<path fill="#2E2E2E" d="M75.4571 25.2575C75.4571 24.3114 76.176 23.2987 77.1324 23.2466V23.2047H69.9665V23.2466C70.9254 23.2987 71.641 24.3114 71.641 25.2575L71.647 47.2515C71.647 47.2515 71.5667 51.135 68.438 53.3697L68.4457 53.4124C69.063 53.3116 75.4622 52.1306 75.4622 45.9493L75.4571 25.2575Z"></path>
<path fill="#2E2E2E" d="M85.4023 27.1021H85.445C86.4151 25.414 87.9111 25.3943 87.9111 25.3943H91.7904L91.7929 42.8131C91.7929 43.7558 91.0714 44.7651 90.1159 44.8214V44.8616H97.2912V44.8214C96.328 44.7651 95.6039 43.7489 95.6039 42.8131L95.609 25.3943L98.8513 25.3866C99.8358 25.3866 100.615 26.15 100.644 27.1021H100.683L101.874 23.1981H86.597L85.4023 27.1021Z"></path>
<path fill="#2E2E2E" d="M121.111 39.0418C121.111 41.2944 122.99 43.2421 125.309 43.2421C127.622 43.2421 129.509 41.2688 129.509 39.0153V25.2572C129.509 24.3111 128.789 23.2984 127.834 23.2463V23.2053L135 23.1985V23.2463C134.05 23.2984 133.326 24.3111 133.326 25.2572V38.6259C133.326 42.9287 129.756 45.4358 125.324 45.4358C120.9 45.4358 117.294 42.9287 117.294 38.6259L117.299 25.2572C117.299 24.3111 116.577 23.2984 115.62 23.2463V23.1985H122.788V23.2463C121.828 23.3035 121.106 24.3171 121.106 25.2572L121.111 39.0418Z"></path>
</svg>
