<svg xmlns="http://www.w3.org/2000/svg" fill="none" viewBox="0 0 170 60" height="60" width="170">
<path fill="#2E2E2E" d="M53.675 21.6374V18.8079C53.675 15.3944 56.8484 12.4275 60.2247 12.4275H77.4503V19.7059H61.6718C61.2961 19.7059 61.0293 19.9724 61.0293 20.3465V21.6374H53.675ZM116.325 26.192H94.3753C90.9456 26.192 88.1583 28.9663 88.1583 32.3273V47.5725H95.469V34.2229C95.469 33.8501 95.7372 33.5829 96.1111 33.5829H116.323V26.1926H116.324L116.325 26.192ZM77.417 25.5625V21.019L77.4163 21.0183H84.7699V27.0998C84.7699 30.5147 81.6943 33.5775 78.3172 33.5775L61.6718 33.5927C61.2975 33.5927 61.0293 33.8605 61.0293 34.2333V38.9701H53.675V32.5993C53.675 29.1845 56.752 26.2176 60.1284 26.2183L76.7739 26.2031C77.1488 26.2031 77.417 25.9366 77.417 25.5625ZM116.323 12.4275H94.3753C90.9456 12.4275 88.1583 15.2018 88.1583 18.5628V24.861H95.469V20.3894C95.469 20.0166 95.7372 19.7494 96.1111 19.7494H116.323V12.4275ZM84.7637 41.1853V38.3558H77.4095V39.6467C77.4095 40.0208 77.1426 40.2873 76.767 40.2873H60.9884V47.5657H78.214C81.5904 47.5657 84.7637 44.5988 84.7637 41.1853Z" clip-rule="evenodd" fill-rule="evenodd"></path>
</svg>
