<svg xmlns="http://www.w3.org/2000/svg" fill="none" viewBox="0 0 170 60" height="60" width="170">
<g clip-path="url(#clip0_288_207)">
<path fill="#17171C" d="M144.889 36.4802C144.965 37.3497 145.661 38.4566 146.866 38.4566H147.571C147.844 38.4566 148.068 38.2325 148.068 37.959V22.4533H148.065C148.051 22.1921 147.835 21.9829 147.571 21.9829H145.386C145.122 21.9829 144.906 22.1921 144.892 22.4533H144.889V23.7133C143.55 22.0634 141.44 21.3785 139.324 21.3785C134.513 21.3785 130.614 25.281 130.614 30.0952C130.614 34.9097 134.513 38.8123 139.324 38.8123V38.8127C141.44 38.8127 143.746 37.991 144.889 36.4782L144.889 36.4802ZM139.332 35.7615C136.273 35.7615 133.793 33.2249 133.793 30.0952C133.793 26.9661 136.273 24.4293 139.332 24.4293C142.391 24.4293 144.871 26.9661 144.871 30.0952C144.871 33.2249 142.391 35.7615 139.332 35.7615Z" clip-rule="evenodd" fill-rule="evenodd"></path>
<path fill="#17171C" d="M127.852 37.0134L127.851 28.9899C127.851 24.4671 125 21.4159 120.454 21.4159C118.283 21.4159 116.504 22.6718 115.876 23.7507C115.74 22.9071 115.293 22.0204 113.905 22.0204H113.197C112.924 22.0204 112.7 22.2446 112.7 22.5181V36.519C112.7 36.5194 112.7 36.5205 112.7 36.5211V38.0251H112.703C112.717 38.2859 112.934 38.4954 113.198 38.4954H115.382C115.416 38.4954 115.449 38.4914 115.48 38.4852C115.495 38.4824 115.508 38.4767 115.522 38.4727C115.538 38.4677 115.555 38.4639 115.571 38.4575C115.59 38.4494 115.608 38.4386 115.626 38.4285C115.635 38.4231 115.644 38.4193 115.653 38.4136C115.675 38.3996 115.695 38.3826 115.714 38.3653C115.717 38.3621 115.721 38.36 115.724 38.3571C115.746 38.336 115.765 38.3129 115.783 38.2888C115.783 38.2884 115.783 38.2884 115.783 38.2884C115.838 38.2132 115.871 38.1227 115.877 38.0251H115.879V28.8655C115.879 26.4364 117.847 24.4671 120.275 24.4671C122.702 24.4671 124.67 26.4364 124.67 28.8655L124.672 36.5216L124.672 36.519C124.672 36.5257 124.673 36.5328 124.673 36.54V38.0251H124.676C124.691 38.2859 124.907 38.4954 125.171 38.4954H127.355C127.389 38.4954 127.422 38.4914 127.453 38.4852C127.466 38.4828 127.478 38.4776 127.491 38.4741C127.509 38.4689 127.527 38.4644 127.544 38.4575C127.562 38.4501 127.578 38.4398 127.595 38.4303C127.606 38.4244 127.617 38.4202 127.626 38.4136C127.647 38.4003 127.665 38.3843 127.683 38.3685C127.688 38.3642 127.693 38.3611 127.697 38.3567C127.718 38.3367 127.736 38.3151 127.753 38.2925C127.755 38.2908 127.756 38.2895 127.757 38.2877C127.811 38.2132 127.844 38.1234 127.85 38.0264C127.85 38.0257 127.85 38.0251 127.85 38.0251H127.853V37.0136L127.852 37.0134Z" clip-rule="evenodd" fill-rule="evenodd"></path>
<path fill="#17171C" d="M105.1 36.4801C105.176 37.3497 105.872 38.4565 107.077 38.4565H107.782C108.055 38.4565 108.279 38.2325 108.279 37.959V22.4533H108.276C108.262 22.1921 108.046 21.9828 107.782 21.9828H105.597C105.333 21.9828 105.117 22.1921 105.102 22.4533H105.1V23.7132C103.761 22.0633 101.651 21.3785 99.5347 21.3785C94.7245 21.3785 90.8252 25.2809 90.8252 30.0952C90.8252 34.9096 94.7245 38.8122 99.5347 38.8122V38.8126C101.651 38.8126 103.957 37.991 105.1 36.4782L105.1 36.4801ZM99.5431 35.7615C96.4841 35.7615 94.0038 33.2248 94.0038 30.0952C94.0038 26.9661 96.4841 24.4293 99.5431 24.4293C102.603 24.4293 105.082 26.9661 105.082 30.0952C105.082 33.2248 102.603 35.7615 99.5431 35.7615Z" clip-rule="evenodd" fill-rule="evenodd"></path>
<path fill="#17171C" d="M77.9054 34.2594C79.3641 35.2706 80.9559 35.7617 82.4857 35.7617C83.9432 35.7617 85.4497 35.0055 85.4497 33.6895C85.4497 31.9324 82.1666 31.659 80.1038 30.9574C78.0409 30.2557 76.2638 28.8054 76.2638 26.4566C76.2638 22.8626 79.4636 21.3783 82.4502 21.3783C84.3425 21.3783 86.295 22.0028 87.5607 22.8973C87.9968 23.2279 87.7311 23.6074 87.7311 23.6074L86.5229 25.3345C86.387 25.529 86.1497 25.697 85.8088 25.4865C85.4679 25.2761 84.2722 24.4292 82.4502 24.4292C80.6279 24.4292 79.5304 25.2713 79.5304 26.3152C79.5304 27.5669 80.957 27.9606 82.6279 28.3872C85.5397 29.1727 88.7163 30.1169 88.7163 33.6895C88.7163 36.856 85.7566 38.813 82.4857 38.813C80.0068 38.813 77.8963 38.1058 76.1263 36.8059C75.7577 36.4365 76.0152 36.0937 76.0152 36.0937L77.2175 34.3753C77.4622 34.054 77.7707 34.1661 77.9054 34.2594Z" clip-rule="evenodd" fill-rule="evenodd"></path>
<path fill="#17171C" d="M69.5069 36.4801C69.5835 37.3497 70.279 38.4565 71.484 38.4565H72.189C72.4622 38.4565 72.6863 38.2325 72.6863 37.959V22.4533H72.6833C72.669 22.1921 72.4531 21.9828 72.189 21.9828H70.0042C69.7401 21.9828 69.5245 22.1921 69.5097 22.4533H69.5069V23.7132C68.1685 22.0633 66.0581 21.3785 63.942 21.3785C59.1317 21.3785 55.2322 25.2809 55.2322 30.0952C55.2322 34.9096 59.1317 38.8122 63.942 38.8122V38.8126C66.0581 38.8126 68.3645 37.991 69.5067 36.4782L69.5069 36.4801ZM63.9506 35.7615C60.8913 35.7615 58.411 33.2248 58.411 30.0952C58.411 26.9661 60.8913 24.4293 63.9506 24.4293C67.0097 24.4293 69.4897 26.9661 69.4897 30.0952C69.4897 33.2248 67.0097 35.7615 63.9506 35.7615Z" clip-rule="evenodd" fill-rule="evenodd"></path>
<path fill="#17171C" d="M43.0213 30.688C39.7842 30.688 37.16 33.3123 37.16 36.5497C37.16 39.7868 39.7842 42.4109 43.0213 42.4109C46.2584 42.4109 48.8827 39.7868 48.8827 36.5497C48.8827 33.3123 46.2584 30.688 43.0213 30.688ZM27.7931 30.6886C24.556 30.6886 21.9318 33.3123 21.9318 36.5497C21.9318 39.7868 24.556 42.4109 27.7931 42.4109C31.0304 42.4109 33.6547 39.7868 33.6547 36.5497C33.6547 33.3123 31.0304 30.6886 27.7931 30.6886ZM41.2685 23.3612C41.2685 26.5986 38.6444 29.2231 35.4072 29.2231C32.17 29.2231 29.5459 26.5986 29.5459 23.3612C29.5459 20.1245 32.17 17.5 35.4072 17.5C38.6444 17.5 41.2685 20.1245 41.2685 23.3612Z" clip-rule="evenodd" fill-rule="evenodd"></path>
</g>
<defs>
<clipPath id="clip0_288_207">
<rect transform="translate(21.9318 17.5)" fill="white" height="25" width="126.136"></rect>
</clipPath>
</defs>
</svg>
