<svg xmlns="http://www.w3.org/2000/svg" fill="none" viewBox="0 0 20 20" height="20" width="20">
<path fill="white" d="M18.0004 5.93594V13.884C18.0004 14.1784 17.9211 14.4614 17.7966 14.6992L16.8682 13.7821L12.9395 9.90996L16.8682 6.04916L17.7966 5.13208C17.9325 5.36984 18.0004 5.64157 18.0004 5.93594Z"></path>
<path fill="white" d="M16.97 15.4689C16.7549 15.5708 16.5058 15.6274 16.2567 15.6274H3.81387C3.56479 15.6274 3.3157 15.5708 3.10059 15.4689L4.09692 14.4952L7.9464 10.7136L8.79555 11.5515C9.13521 11.8911 9.58809 12.0496 10.041 12.0496C10.4939 12.0496 10.9354 11.8911 11.2751 11.5515L12.1355 10.7136L15.9737 14.4952L16.97 15.4689Z"></path>
<path fill="white" d="M7.13222 9.90996L3.20349 13.7821L2.27509 14.6878C2.13922 14.4501 2.07129 14.1784 2.07129 13.884V5.93594C2.07129 5.64157 2.13922 5.36984 2.27509 5.13208L3.20349 6.03784L7.13222 9.90996Z"></path>
<path fill="white" d="M16.981 4.35089L15.9846 5.32458L10.4821 10.7478C10.233 10.9856 9.83678 10.9856 9.58769 10.7478L4.0852 5.32458L3.08887 4.35089C3.30399 4.24899 3.55307 4.19238 3.81348 4.19238H16.2564C16.5168 4.19238 16.7658 4.24899 16.981 4.35089Z"></path>
</svg>
