<svg xmlns="http://www.w3.org/2000/svg" fill="none" viewBox="0 0 170 60" height="60" width="170">
<g clip-path="url(#clip0_530_19)">
<path fill="#2E2E2E" d="M125.275 30.1124V34.8374H109.937V11.0624H115.337V30.1124H125.275ZM54.3624 34.8374C59.8949 34.8374 64.5449 31.0574 65.8699 25.9424L79.3199 36.4499L92.7624 25.9474V34.8374H108.1V30.1124H98.1624V11.0624H92.7624V19.9524L79.8699 30.0249L76.9874 27.7724L83.1599 22.9499L89.8799 17.6999L86.0424 14.7024L73.1499 24.7749L70.2674 22.5224L83.1599 12.4499L79.3224 9.45239L65.8724 19.9599C64.5449 14.8424 59.8949 11.0624 54.3624 11.0624H44.7249V34.8374H54.3624ZM50.1249 30.1124V15.7874H54.3624C57.9449 15.7874 60.8499 18.9949 60.8499 22.9499C60.8499 26.9049 57.9449 30.1124 54.3624 30.1124H50.1249Z"></path>
<path fill="#2E2E2E" d="M125.275 50.1773C125.275 48.7548 124.485 48.1248 122.905 47.8073C121.325 47.4923 120.377 47.3323 120.377 46.2273C120.377 45.4373 121.01 44.9648 122.115 44.9648C123.537 44.9648 124.01 45.5973 124.01 46.3873L124.167 46.5448H124.8L124.957 46.3873C124.957 44.8073 123.692 44.1748 122.115 44.1748C120.377 44.1748 119.43 45.1223 119.43 46.2298C119.43 47.4923 120.377 48.1248 121.957 48.4398C123.537 48.7573 124.327 48.9148 124.327 50.1773C124.327 50.9673 123.855 51.5998 122.275 51.5998C120.852 51.5998 120.222 50.8098 120.222 49.8623L120.065 49.7048H119.432L119.275 49.8623C119.275 51.2848 120.38 52.3898 122.275 52.3898C124.327 52.3898 125.277 51.4423 125.277 50.1798M118.482 48.5998L118.64 48.4423V47.9698C118.64 45.7573 117.377 44.1773 115.165 44.1773C112.952 44.1773 111.69 45.7573 111.69 47.9698V48.2848C111.69 50.4948 112.795 52.3923 115.322 52.3923C117.532 52.3923 118.322 50.9698 118.482 50.0223L118.325 49.8648H117.692L117.535 50.0223C117.22 50.9698 116.587 51.6023 115.325 51.6023C113.27 51.6023 112.64 49.7073 112.64 48.7598L112.797 48.6023H118.485L118.482 48.5998ZM117.535 47.8098H112.797L112.64 47.6523C112.64 46.5473 113.272 44.9673 115.167 44.9673C117.062 44.9673 117.695 46.5473 117.695 47.6523L117.537 47.8098H117.535ZM110.585 52.0748V44.4923L110.427 44.3348H109.795L109.637 44.4923V52.0748L109.795 52.2323H110.427L110.585 52.0748ZM110.585 42.9123V41.9648L110.427 41.8073H109.795L109.637 41.9648V42.9123L109.795 43.0698H110.427L110.585 42.9123ZM104.582 51.5998C103.002 51.5998 102.055 50.4948 102.055 48.2823C102.055 46.0698 103.002 44.9648 104.582 44.9648C106.162 44.9648 107.11 46.0698 107.11 48.2823C107.11 50.4948 106.162 51.5998 104.582 51.5998ZM107.11 51.1248C107.11 53.1773 106.635 54.7573 104.74 54.7573C103.317 54.7573 102.845 54.1248 102.687 53.3348L102.53 53.1773H101.897L101.74 53.3348C101.897 54.5973 102.845 55.5448 104.74 55.5448C106.795 55.5448 108.057 54.2823 108.057 51.1223V44.4873L107.9 44.3298H107.425L107.267 44.4873L107.11 45.4373H106.952C106.637 44.8048 105.847 44.1723 104.425 44.1723C102.215 44.1723 101.107 45.9098 101.107 48.2798C101.107 50.6498 102.212 52.3873 104.425 52.3873C105.847 52.3873 106.637 51.7573 106.952 51.1248H107.11ZM96.8424 44.9648C98.4224 44.9648 99.5274 46.2273 99.5274 48.2823C99.5274 50.3373 98.4224 51.5998 96.8424 51.5998C95.2624 51.5998 94.1574 50.3373 94.1574 48.2823C94.1574 46.2273 95.2624 44.9648 96.8424 44.9648ZM96.8424 52.3898C98.8949 52.3898 100.475 50.9673 100.475 48.2823C100.475 45.5973 98.8949 44.1748 96.8424 44.1748C94.7899 44.1748 93.2099 45.5973 93.2099 48.2823C93.2099 50.9673 94.7899 52.3898 96.8424 52.3898ZM92.1049 52.0748V41.3323L91.9474 41.1748H91.3149L91.1574 41.3323V52.0748L91.3149 52.2323H91.9474L92.1049 52.0748ZM86.4174 44.9648C87.9974 44.9648 89.1024 46.2273 89.1024 48.2823C89.1024 50.3373 87.9974 51.5998 86.4174 51.5998C84.8374 51.5998 83.7324 50.3373 83.7324 48.2823C83.7324 46.2273 84.8374 44.9648 86.4174 44.9648ZM86.4174 52.3898C88.4699 52.3898 90.0499 50.9673 90.0499 48.2823C90.0499 45.5973 88.4699 44.1748 86.4174 44.1748C84.3649 44.1748 82.7849 45.5973 82.7849 48.2823C82.7849 50.9673 84.3649 52.3898 86.4174 52.3898ZM81.8374 52.0748V47.3348C81.8374 45.2823 80.7324 44.1748 78.9949 44.1748C77.8899 44.1748 76.9399 44.6498 76.4674 45.4398H76.3099L76.1524 44.4898L75.9949 44.3323H75.5199L75.3624 44.4898V52.0723L75.5199 52.2298H76.1524L76.3099 52.0723V47.8073C76.3099 46.0698 77.0999 44.9648 78.8374 44.9648C80.0999 44.9648 80.8899 45.7548 80.8899 47.3348V52.0748L81.0474 52.2323H81.6799L81.8374 52.0748ZM73.7799 52.0748V47.3348C73.7799 45.2823 72.6749 44.1748 70.9374 44.1748C69.8324 44.1748 68.8849 44.6498 68.4099 45.4398H68.2524V41.3323L68.0949 41.1748H67.4624L67.3049 41.3323V52.0748L67.4624 52.2323H68.0949L68.2524 52.0748V47.8098C68.2524 46.0723 69.0424 44.9673 70.7799 44.9673C72.0424 44.9673 72.8324 45.7573 72.8324 47.3373V52.0773L72.9899 52.2348H73.6224L73.7799 52.0773V52.0748ZM60.1974 48.2823C60.1974 46.0698 61.3024 44.9648 62.8824 44.9648C64.4624 44.9648 65.0924 45.9123 65.2524 46.8598L65.4099 47.0173H66.0424L66.1999 46.8598C66.0424 45.2798 64.7774 44.1748 62.8824 44.1748C60.8299 44.1748 59.2499 45.4398 59.2499 48.2823C59.2499 51.1248 60.8299 52.3898 62.8824 52.3898C64.7774 52.3898 66.0424 51.2848 66.1999 49.7048L66.0424 49.5473H65.4099L65.2524 49.7048C65.0949 50.6523 64.4624 51.5998 62.8824 51.5998C61.3024 51.5998 60.1974 50.4948 60.1974 48.2823ZM58.4599 48.5998L58.6174 48.4423V47.9698C58.6174 45.7573 57.3524 44.1773 55.1424 44.1773C52.9324 44.1773 51.6674 45.7573 51.6674 47.9698V48.2848C51.6674 50.4948 52.7724 52.3923 55.2999 52.3923C57.5099 52.3923 58.2999 50.9698 58.4599 50.0223L58.3024 49.8648H57.6724L57.5149 50.0223C57.1999 50.9698 56.5674 51.6023 55.3049 51.6023C53.2524 51.6023 52.6199 49.7073 52.6199 48.7598L52.7774 48.6023H58.4649L58.4599 48.5998ZM57.5124 47.8098H52.7749L52.6174 47.6523C52.6174 46.5473 53.2499 44.9673 55.1449 44.9673C57.0399 44.9673 57.6724 46.5473 57.6724 47.6523L57.5149 47.8098H57.5124ZM53.2549 41.8073V41.3323L53.0974 41.1748H44.8824L44.7249 41.3323V41.8073L44.8824 41.9648H48.3574L48.5149 42.1223V52.0748L48.6724 52.2323H49.3049L49.4624 52.0748V42.1223L49.6199 41.9648H53.0949L53.2524 41.8073H53.2549Z"></path>
</g>
<defs>
<clipPath id="clip0_530_19">
<rect transform="translate(44.7251 9.44995)" fill="white" height="46.1" width="80.55"></rect>
</clipPath>
</defs>
</svg>
