<svg xmlns="http://www.w3.org/2000/svg" fill="none" viewBox="0 0 170 60" height="60" width="170">
<g clip-path="url(#clip0_672_49)">
<path fill="#2E2E2E" d="M43.7006 31.0828H37.2538V35.4485H44.8179V38.144H33.8979V21.8523H44.7949V24.5708H37.2538V28.4527H43.7006V31.0828Z"></path>
<path fill="#2E2E2E" d="M61.2671 38.144H57.9112L51.3761 27.4236V38.144H48.0203V21.8523H51.3761L57.9227 32.5957V21.8523H61.2671V38.144Z"></path>
<path fill="#2E2E2E" d="M73.4924 33.8705C73.4924 33.2369 73.2697 32.7493 72.8205 32.4114C72.3713 32.0735 71.5688 31.7126 70.4054 31.3363C69.242 30.96 68.3204 30.5876 67.6408 30.2228C65.7901 29.2245 64.8647 27.8768 64.8647 26.1835C64.8647 25.3042 65.1143 24.5171 65.6096 23.8298C66.105 23.1386 66.8191 22.6011 67.7483 22.2133C68.6775 21.8255 69.7181 21.6296 70.8738 21.6296C72.0295 21.6296 73.0739 21.8408 73.9839 22.2632C74.8939 22.6855 75.6004 23.2807 76.1034 24.0486C76.6064 24.8166 76.8598 25.6882 76.8598 26.6673H73.504C73.504 25.9224 73.2697 25.3426 72.7975 24.9279C72.329 24.5132 71.6686 24.3059 70.8162 24.3059C69.9638 24.3059 69.3571 24.4787 68.9041 24.8281C68.4471 25.1736 68.2206 25.6306 68.2206 26.1988C68.2206 26.7287 68.4855 27.1703 69.0193 27.5312C69.553 27.8883 70.3362 28.2262 71.373 28.5372C73.2813 29.1131 74.6751 29.8235 75.5467 30.6759C76.4183 31.5283 76.856 32.5842 76.856 33.8551C76.856 35.2643 76.3223 36.3701 75.2548 37.1726C74.1874 37.9751 72.7514 38.3744 70.9468 38.3744C69.695 38.3744 68.5508 38.144 67.5218 37.6871C66.4928 37.2302 65.7056 36.6005 65.1681 35.8018C64.6267 35.0032 64.3579 34.0778 64.3579 33.0257H67.7253C67.7253 34.8227 68.8004 35.7212 70.9468 35.7212C71.7454 35.7212 72.3674 35.5599 72.8167 35.2335C73.2659 34.9072 73.4886 34.4541 73.4886 33.8743L73.4924 33.8705Z"></path>
<path fill="#2E2E2E" d="M90.1642 31.0828H83.7174V35.4485H91.2816V38.144H80.3616V21.8523H91.2585V24.5708H83.7174V28.4527H90.1642V31.0828Z"></path>
<path fill="#2E2E2E" d="M99.2528 21.8523L103.438 33.6669L107.6 21.8523H112.008V38.144H108.641V33.69L108.975 26.003L104.578 38.144H102.275L97.8897 26.0145L98.2238 33.69V38.144H94.8679V21.8523H99.2528Z"></path>
<path fill="#2E2E2E" d="M116.17 38.144V21.8523H121.876C123.853 21.8523 125.351 22.2324 126.372 22.9888C127.393 23.7452 127.904 24.8549 127.904 26.3178C127.904 27.1165 127.701 27.8191 127.29 28.4258C126.879 29.0325 126.311 29.4779 125.577 29.762C126.414 29.9693 127.071 30.3917 127.551 31.0252C128.031 31.6588 128.273 32.4344 128.273 33.3521C128.273 34.9186 127.774 36.1051 126.775 36.9114C125.777 37.7178 124.352 38.1286 122.502 38.144H116.17ZM119.526 28.6792H122.01C123.704 28.6485 124.552 27.9727 124.552 26.6519C124.552 25.9147 124.337 25.3809 123.907 25.0584C123.477 24.7359 122.801 24.5708 121.876 24.5708H119.526V28.6792ZM119.526 31.0521V35.4485H122.402C123.193 35.4485 123.811 35.2604 124.253 34.8841C124.698 34.5078 124.917 33.9856 124.917 33.3213C124.917 31.8277 124.145 31.0713 122.602 31.0483H119.526V31.0521Z"></path>
<path fill="#2E2E2E" d="M134.996 35.4485H142.123V38.144H131.636V21.8523H134.992V35.4485H134.996Z"></path>
<path fill="#2E2E2E" d="M155.081 31.0828H148.635V35.4485H156.199V38.144H145.279V21.8523H156.176V24.5708H148.635V28.4527H155.081V31.0828Z"></path>
<path fill="#2E2E2E" d="M19.9258 20.0745C25.4074 20.0746 29.8506 24.5186 29.8506 30.0002C29.8504 35.4817 25.4073 39.9249 19.9258 39.925C14.4442 39.925 10.0001 35.4818 10 30.0002C10 24.5185 14.4441 20.0745 19.9258 20.0745ZM15.8252 26.2444L21.5723 29.8733L15.8213 33.4514V36.1086L25.3936 30.177C25.6123 30.0349 25.6123 29.7077 25.3936 29.5657L15.8398 23.6565L15.8252 26.2444Z"></path>
<path fill="#2E2E2E" d="M158.414 22.0519H158.019V23.2729H157.773V22.0519H157.377V21.833H158.414V22.0519ZM159.758 22.217L159.382 23.2729H159.244L158.867 22.2208V23.2729H158.625V21.833H158.925L159.313 22.9043L159.7 21.833H160V23.2729H159.758V22.217Z"></path>
</g>
<defs>
<clipPath id="clip0_672_49">
<rect transform="translate(10 20.0745)" fill="white" height="19.851" width="150"></rect>
</clipPath>
</defs>
</svg>
