<svg xmlns="http://www.w3.org/2000/svg" fill="none" viewBox="0 0 170 60" height="60" width="170">
<g clip-path="url(#clip0_392_288)">
<path fill="#2E2E2E" d="M143.768 21.4716C141.912 20.3869 139.118 19.8765 137.135 19.8765C131.887 19.8765 129.456 22.216 129.456 25.5552C129.456 28.4265 131.631 30.1705 133.999 31.085C135.172 31.5104 136.473 31.957 137.454 32.2335C139.033 32.6802 139.651 33.4246 139.651 34.5093C139.651 35.8705 138.692 36.6787 136.196 36.6787C134.49 36.6787 132.25 35.9981 130.65 35.0835L129.157 38.4014C131.205 39.5712 133.956 40.188 136.239 40.188C141.145 40.188 144.003 37.7421 144.003 34.3604C144.003 30.9787 142.296 30.0216 140.377 29.1921C139.63 28.8944 138.244 28.4477 137.518 28.235C135.066 27.5544 133.743 26.9377 133.743 25.3212C133.743 24.1302 134.532 23.1944 137.22 23.1944C139.161 23.1944 141.059 23.8537 142.36 24.5981L143.768 21.4716ZM123.611 20.153V36.1682H123.121L117.447 20.153H109.768V39.8264H113.928V23.556H114.461L120.071 39.8264H127.749V20.153H123.611ZM108.382 22.4713C106.676 20.5784 103.881 19.8552 101.365 19.8552C95.5415 19.8552 92.0007 23.322 92.0007 30.0003C92.0007 36.6787 94.7309 40.1454 101.322 40.1454C103.775 40.1454 106.356 39.5712 108.105 38.5503L107.124 35.2749C105.716 35.9768 103.604 36.4447 101.62 36.4447C97.4825 36.4447 96.3947 33.8074 96.3947 29.9578C96.3947 25.4701 98.3997 23.322 101.535 23.322C103.391 23.322 104.948 24.1302 105.993 25.2149L108.382 22.4713Z"></path>
<path fill="#2E2E2E" d="M77.2418 32.3394H80.9532V35.7849C80.2706 36.0401 78.9268 36.2953 77.6684 36.2953C73.5731 36.2953 72.208 34.211 72.208 29.9998C72.208 25.7886 73.5091 23.598 77.6044 23.598C79.8867 23.598 81.1878 24.3211 82.2543 25.6823L85.0911 23.0875C83.3634 20.6204 80.3346 19.876 77.4977 19.876C71.1201 19.876 67.75 23.3428 67.75 29.9785C67.75 36.6143 70.7789 40.1449 77.4551 40.1449C80.5266 40.1449 83.5127 39.358 85.1338 38.2308V28.6812H77.2205V32.3394H77.2418ZM57.7677 20.1525H53.2031V39.8259H67.2168V35.9976H57.7677V20.1525Z"></path>
<path fill="#2E2E2E" d="M31.0871 14.8779C22.7741 14.8779 16.0349 21.5756 16.0349 29.837C16.0349 38.0985 22.7741 44.7985 31.0871 44.7985C39.4 44.7985 46.1377 38.1009 46.1377 29.837C46.1377 21.5732 39.4004 14.8779 31.0871 14.8779Z"></path>
<path fill="white" d="M40.0805 38.7699C37.678 41.1554 34.4841 42.471 31.0891 42.471C27.694 42.471 24.5001 41.1554 22.0973 38.7699C19.6969 36.3792 18.374 33.2082 18.374 29.8313C18.374 22.8672 24.0794 17.1956 31.0891 17.1956L31.804 17.2039V18.4881L31.8032 18.6036L31.0891 18.5952C28.0695 18.5952 25.2327 19.7635 23.0931 21.8873C20.9596 24.0107 19.7826 26.832 19.7826 29.8313C19.7826 32.8306 20.9596 35.6563 23.0931 37.7797C25.2291 39.9027 28.0695 41.0737 31.0891 41.0737C37.0196 41.0737 41.972 36.4664 42.3687 30.5893C42.3687 30.5893 42.3711 30.5694 42.3711 30.5463H34.7975V29.1514H43.1798L43.8033 29.1478V29.8313C43.8033 33.2094 42.4789 36.382 40.0805 38.7699Z"></path>
<path fill="white" d="M34.7981 35.1024V36.5032H30.3723V23.1565H31.8046V35.1024H34.7981Z"></path>
<path fill="white" d="M28.2036 25.0592C28.2036 26.1103 27.3416 26.9659 26.2824 26.9659C25.2233 26.9659 24.3633 26.1103 24.3633 25.0592C24.3633 24.008 25.2237 23.1497 26.2824 23.1497C27.3412 23.1497 28.2036 24.008 28.2036 25.0592Z"></path>
</g>
<defs>
<clipPath id="clip0_392_288">
<rect transform="translate(16 14.8779)" fill="white" height="30.2439" width="128"></rect>
</clipPath>
</defs>
</svg>
