<svg xmlns="http://www.w3.org/2000/svg" fill="none" viewBox="0 0 20 20" height="20" width="20">
<path fill="white" d="M15.7666 4.70405C14.711 4.21196 13.568 3.8548 12.3775 3.64844C12.3566 3.64874 12.3366 3.65729 12.3219 3.67225C12.1791 3.93417 12.0124 4.27546 11.9013 4.53738C10.6385 4.34701 9.35432 4.34701 8.09154 4.53738C7.98042 4.26752 7.81375 3.93417 7.66294 3.67225C7.65501 3.65637 7.6312 3.64844 7.60738 3.64844C6.41684 3.8548 5.28186 4.21196 4.2183 4.70405C4.21037 4.70405 4.20243 4.71199 4.19449 4.71993C2.03564 7.95027 1.44037 11.0933 1.73404 14.2046C1.73404 14.2205 1.74197 14.2363 1.75785 14.2443C3.1865 15.292 4.55959 15.9269 5.91681 16.3476C5.94062 16.3555 5.96443 16.3476 5.97237 16.3317C6.28985 15.8952 6.57558 15.4348 6.82163 14.9507C6.8375 14.9189 6.82163 14.8872 6.78988 14.8792C6.33747 14.7046 5.90888 14.4983 5.48822 14.2601C5.45647 14.2443 5.45647 14.1967 5.48028 14.1728C5.56759 14.1093 5.65489 14.0379 5.7422 13.9744C5.75807 13.9585 5.78188 13.9585 5.79776 13.9665C8.52807 15.2126 11.4727 15.2126 14.1712 13.9665C14.1871 13.9585 14.2109 13.9585 14.2268 13.9744C14.3141 14.0458 14.4014 14.1093 14.4887 14.1808C14.5205 14.2046 14.5205 14.2522 14.4808 14.2681C14.0681 14.5141 13.6315 14.7126 13.1791 14.8872C13.1474 14.8951 13.1394 14.9348 13.1474 14.9586C13.4014 15.4428 13.6871 15.9031 13.9966 16.3396C14.0204 16.3476 14.0443 16.3555 14.0681 16.3476C15.4332 15.9269 16.8063 15.292 18.235 14.2443C18.2508 14.2363 18.2588 14.2205 18.2588 14.2046C18.608 10.6091 17.6794 7.48992 15.7983 4.71993C15.7904 4.71199 15.7824 4.70405 15.7666 4.70405ZM7.23435 12.3077C6.41684 12.3077 5.73426 11.5536 5.73426 10.625C5.73426 9.6964 6.40097 8.94239 7.23435 8.94239C8.07566 8.94239 8.74237 9.70433 8.73443 10.625C8.73443 11.5536 8.06773 12.3077 7.23435 12.3077ZM12.7664 12.3077C11.9489 12.3077 11.2663 11.5536 11.2663 10.625C11.2663 9.6964 11.933 8.94239 12.7664 8.94239C13.6077 8.94239 14.2744 9.70433 14.2665 10.625C14.2665 11.5536 13.6077 12.3077 12.7664 12.3077Z"></path>
</svg>
