<svg xmlns="http://www.w3.org/2000/svg" fill="none" viewBox="0 0 171 61" height="61" width="171">
<path fill="#2E2E2E" d="M80.2952 38.1352V27.1021H80.4898L88.4381 38.1352H90.9393V21.9329H88.1602V32.9383H87.9656L80.0173 21.9329H77.5161V38.1352H80.2952ZM98.8042 38.3853C102.473 38.3853 104.724 35.9953 104.724 31.9934C104.724 28.0192 102.473 25.6014 98.8042 25.6014C95.1635 25.6014 92.8847 28.0192 92.8847 31.9934C92.9125 35.9953 95.1357 38.3853 98.8042 38.3853ZM98.8042 36.0509C96.8588 36.0509 95.7472 34.5779 95.7472 31.9934C95.7472 29.4366 96.8588 27.9358 98.8042 27.9358C100.75 27.9358 101.861 29.4366 101.861 31.9934C101.861 34.5779 100.75 36.0509 98.8042 36.0509ZM107.253 22.85V25.9349H105.307V28.1582H107.253V34.8559C107.253 37.2459 108.364 38.1908 111.199 38.1908C111.727 38.1908 112.255 38.1352 112.672 38.0518V35.8841C112.339 35.9119 112.116 35.9397 111.727 35.9397C110.56 35.9397 110.032 35.4117 110.032 34.1889V28.1582H112.672V25.9349H110.032V22.85H107.253ZM114.34 38.1352H117.119V25.8515H114.34V38.1352ZM115.729 23.8227C116.646 23.8227 117.397 23.0724 117.397 22.1553C117.397 21.2104 116.646 20.46 115.729 20.46C114.812 20.46 114.062 21.2104 114.062 22.1553C114.062 23.0724 114.812 23.8227 115.729 23.8227ZM124.733 38.3853C128.402 38.3853 130.653 35.9953 130.653 31.9934C130.653 28.0192 128.402 25.6014 124.733 25.6014C121.093 25.6014 118.814 28.0192 118.814 31.9934C118.814 35.9953 121.037 38.3853 124.733 38.3853ZM124.733 36.0509C122.788 36.0509 121.676 34.5779 121.676 31.9934C121.676 29.4366 122.788 27.9358 124.733 27.9358C126.651 27.9358 127.79 29.4366 127.79 31.9934C127.763 34.5779 126.651 36.0509 124.733 36.0509ZM132.293 38.1352H135.072V30.9929C135.072 29.1864 136.128 28.047 137.768 28.047C139.463 28.047 140.241 28.9919 140.241 30.8539V38.1352H143.02V30.1869C143.02 27.2411 141.519 25.6014 138.796 25.6014C136.962 25.6014 135.739 26.4351 135.155 27.8247H134.961V25.8515H132.265C132.293 25.8515 132.293 38.1352 132.293 38.1352Z"></path>
<path fill="#2E2E2E" d="M34.9403 16.9303C36.2465 17.9864 36.7189 17.903 39.1645 17.7362L62.2035 16.3467C62.7037 16.3467 62.2869 15.8464 62.1201 15.7908L58.2849 13.0395C57.5623 12.4837 56.5619 11.8167 54.6999 11.9835L32.4113 13.6231C31.6053 13.7065 31.4386 14.1234 31.7721 14.4291L34.9403 16.9303ZM36.3298 22.294V46.528C36.3298 47.8341 36.969 48.3066 38.442 48.2232L63.7598 46.7503C65.2327 46.6669 65.3995 45.7776 65.3995 44.7215V20.6543C65.3995 19.5982 64.9826 19.0146 64.0933 19.098L37.636 20.6543C36.6633 20.7377 36.3298 21.2379 36.3298 22.294ZM61.3142 23.6002C61.4809 24.3228 61.3142 25.0731 60.5916 25.1565L59.3688 25.4066V43.3042C58.3127 43.86 57.34 44.1935 56.5063 44.1935C55.2001 44.1935 54.8666 43.7766 53.8939 42.5538L45.9178 30.02V42.1369L48.4468 42.6928C48.4468 42.6928 48.4468 44.1657 46.4181 44.1657L40.8042 44.4992C40.6375 44.1657 40.8042 43.3598 41.3601 43.193L42.833 42.7761V26.7684L40.8042 26.6016C40.6375 25.8791 41.0544 24.823 42.1938 24.7396L48.2245 24.3228L56.5341 36.9956V25.7957L54.4219 25.5456C54.2552 24.6563 54.9222 23.9893 55.7281 23.9059L61.3142 23.6002ZM30.5493 11.3998L53.7549 9.70457C56.5897 9.45445 57.34 9.62119 59.1187 10.9274L66.5111 16.1243C67.7339 17.0137 68.1508 17.2638 68.1508 18.2365V46.7781C68.1508 48.5567 67.5116 49.6128 65.2327 49.7795L38.303 51.4192C36.58 51.5026 35.774 51.2525 34.8847 50.113L29.4098 43.0263C28.4371 41.7201 28.0203 40.7474 28.0203 39.6079V14.2345C28.0203 12.7616 28.6873 11.5666 30.5493 11.3998Z" clip-rule="evenodd" fill-rule="evenodd"></path>
</svg>
