<svg width="150" height="24" viewBox="0 0 150 24" fill="none" xmlns="http://www.w3.org/2000/svg">
  <defs>
    <linearGradient id="logoGrad" x1="0" y1="0" x2="0" y2="1">
      <stop offset="0%" stop-color="#6366F1" stop-opacity="0"/>
      <stop offset="20%" stop-color="#818CF8" stop-opacity="0.5"/>
      <stop offset="40%" stop-color="#A5B4FC" stop-opacity="0.85"/>
      <stop offset="50%" stop-color="#212121" stop-opacity="1"/>
      <stop offset="60%" stop-color="#A5B4FC" stop-opacity="0.85"/>
      <stop offset="80%" stop-color="#818CF8" stop-opacity="0.5"/>
      <stop offset="100%" stop-color="#6366F1" stop-opacity="0"/>
    </linearGradient>
    <filter id="logoGlow"><feGaussianBlur stdDeviation="0.4"/></filter>
  </defs>
  <!-- V41 Wave Icon scaled to 24x24 -->
  <g transform="translate(0, 0) scale(0.75)">
    <g transform="translate(4,0)">
      <rect x="0" y="14.2" width=".35" rx=".175" height="3.5" fill="url(#logoGrad)" opacity=".04"/>
      <rect x="1" y="13.5" width=".35" rx=".175" height="4.8" fill="url(#logoGrad)" opacity=".08"/>
      <rect x="2" y="12.8" width=".35" rx=".175" height="3.2" fill="url(#logoGrad)" opacity=".12"/>
      <rect x="3" y="12.3" width=".35" rx=".175" height="5.5" fill="url(#logoGrad)" opacity=".17"/>
      <rect x="4" y="12" width=".35" rx=".175" height="4" fill="url(#logoGrad)" opacity=".21"/>
      <rect x="5" y="11.8" width=".35" rx=".175" height="6.5" fill="url(#logoGrad)" opacity=".25"/>
      <rect x="6" y="11.8" width=".35" rx=".175" height="5" fill="url(#logoGrad)" opacity=".29"/>
      <rect x="7" y="12" width=".35" rx=".175" height="7.5" fill="url(#logoGrad)" opacity=".33"/>
      <rect x="8" y="12.4" width=".35" rx=".175" height="5.5" fill="url(#logoGrad)" opacity=".38"/>
      <rect x="9" y="12.9" width=".35" rx=".175" height="8" fill="url(#logoGrad)" opacity=".42"/>
      <rect x="10" y="13.5" width=".35" rx=".175" height="6" fill="url(#logoGrad)" opacity=".46"/>
      <rect x="11" y="14" width=".35" rx=".175" height="8.5" fill="url(#logoGrad)" opacity=".5"/>
      <rect x="12" y="14.3" width=".35" rx=".175" height="6.5" fill="url(#logoGrad)" opacity=".54"/>
      <rect x="13" y="14.2" width=".35" rx=".175" height="8" fill="url(#logoGrad)" opacity=".58"/>
      <rect x="14" y="13.8" width=".35" rx=".175" height="6" fill="url(#logoGrad)" opacity=".63"/>
      <rect x="15" y="13" width=".35" rx=".175" height="7.5" fill="url(#logoGrad)" opacity=".67"/>
      <rect x="16" y="12.2" width=".35" rx=".175" height="5.5" fill="url(#logoGrad)" opacity=".71"/>
      <rect x="17" y="11.3" width=".35" rx=".175" height="6.5" fill="url(#logoGrad)" opacity=".75"/>
      <rect x="18" y="10.5" width=".35" rx=".175" height="5" fill="url(#logoGrad)" opacity=".79"/>
      <rect x="19" y="9.7" width=".35" rx=".175" height="5.5" fill="url(#logoGrad)" opacity=".83"/>
      <rect x="20" y="8.9" width=".35" rx=".175" height="4.5" fill="url(#logoGrad)" opacity=".88"/>
      <rect x="21" y="8.1" width=".35" rx=".175" height="4.8" fill="url(#logoGrad)" opacity=".92"/>
      <rect x="22" y="7.3" width=".35" rx=".175" height="4" fill="url(#logoGrad)" opacity=".96"/>
    </g>
    <circle cx="27" cy="9" r="1" fill="#212121" filter="url(#logoGlow)"/>
  </g>
  <!-- Text: hyperfocus.tech -->
  <text x="28" y="17" font-family="Geist Mono, SF Mono, monospace" font-size="14" font-weight="500" letter-spacing="-0.01em" fill="#212121">hyperfocus<tspan fill-opacity="0.35">.tech</tspan></text>
</svg>
