<svg width="33" height="22" viewBox="0 0 33 22" fill="none" xmlns="http://www.w3.org/2000/svg">
<g clip-path="url(#clip0_2388_1361)">
<path d="M0.919774 0.333984H8.91897C9.46825 0.333984 9.78182 0.961122 9.45225 1.40054L8.65233 2.4671C8.40049 2.8028 8.00547 3.00038 7.58577 3.00038H0.919774C0.551677 3.00038 0.253174 2.70188 0.253174 2.33378V1.00058C0.253174 0.632488 0.551677 0.333984 0.919774 0.333984Z" fill="#222222"/>
<path d="M32.2504 1.00058V2.33378C32.2504 2.70188 31.9519 3.00038 31.5838 3.00038H12.919C12.3697 3.00038 12.0562 2.37325 12.3857 1.93382L13.3856 0.600624C13.5115 0.432774 13.7091 0.333984 13.9189 0.333984H31.5838C31.9519 0.333984 32.2504 0.632488 32.2504 1.00058Z" fill="#222222"/>
<path d="M31.5834 9.66602H0.919774C0.551621 9.66602 0.253174 9.96446 0.253174 10.3326V11.6658C0.253174 12.034 0.551621 12.3324 0.919774 12.3324H31.5834C31.9515 12.3324 32.25 12.034 32.25 11.6658V10.3326C32.25 9.96446 31.9515 9.66602 31.5834 9.66602Z" fill="#222222"/>
<path d="M0.919774 18.998H19.5846C20.1339 18.998 20.4474 19.6252 20.1179 20.0646L19.3179 21.1312C19.0661 21.4669 18.6711 21.6644 18.2514 21.6644H0.919774C0.551677 21.6644 0.253174 21.3659 0.253174 20.9978V19.6646C0.253174 19.2966 0.551677 18.998 0.919774 18.998Z" fill="#222222"/>
<path d="M32.2508 19.6666V20.9998C32.2508 21.3679 31.9523 21.6664 31.5842 21.6664H23.585C23.0358 21.6664 22.7222 21.0393 23.0518 20.5998L23.8517 19.5333C24.1035 19.1976 24.4985 19 24.9182 19H31.5842C31.9523 19 32.2508 19.2985 32.2508 19.6666Z" fill="#222222"/>
</g>
<defs>
<clipPath id="clip0_2388_1361">
<rect width="31.9968" height="21.3312" fill="white" transform="translate(0.253174 0.333984)"/>
</clipPath>
</defs>
</svg>
